<svg id="svgcontent" width="955" height="626" x="0" y="0" overflow="visible" xmlns="http://www.w3.org/2000/svg" xmlns:se="http://imprintnext.com" xmlns:xlink="http://www.w3.org/1999/xlink" viewBox="0 0 955 626"><!-- Made with luv in USA by ImprintNext - https://imprintnext.com--><defs><clipPath id="bound_0" xe_id="bound_0"><rect id="xe_5zlejh" x="235.80000000000004" y="71.30000000000001" pointer-events="all" width="483.3999999999999" height="483.4"></rect></clipPath></defs><g id="bounds" display="none"><path d="M235.80000000000004 71.30000000000001 L719.1999999999999 71.30000000000001 L719.1999999999999 554.7 L235.80000000000004 554.7  Z" x="235.80000000000004" y="71.30000000000001" width="483.3999999999999" height="483.4" aWidth="5.83" aHeight="5.83" fill="none" stroke="#006400" isBleed="0" safeVal="0" cropVal="0" stroke-miterlimit="null" stroke-width="1" pointer-events="all" id="bound_0" xe_id="bound_0"></path></g><g class="layer" id="Layer_0" xe_id="Layer_0" style="pointer-events:all" clip-path="url(#bound_0)"><title>Layer_0</title><g id="background" type="bg_area_0" pointer-events="none" style="color-interpolation-filters:sRGB;pointer-events: none;"></g><g id="xe_w0wz7h" type="image" pointer-events="bounding-box" xe-props="&amp;#35;&amp;#103;&amp;#76;&amp;#73;&amp;#65;&amp;#101;&amp;#122;&amp;#127;&amp;#26;&amp;#89;&amp;#92;&amp;#97;&amp;#63;&amp;#32;&amp;#26;&amp;#28;&amp;#19;&amp;#111;&amp;#58;&amp;#47;&amp;#93;&amp;#83;&amp;#69;&amp;#84;&amp;#49;&amp;#49;&amp;#84;&amp;#85;&amp;#19;&amp;#58;&amp;#122;&amp;#103;&amp;#20;&amp;#18;&amp;#88;&amp;#115;&amp;#12;&amp;#32;&amp;#85;&amp;#64;&amp;#93;&amp;#97;&amp;#44;&amp;#32;&amp;#113;&amp;#93;&amp;#86;&amp;#34;&amp;#98;&amp;#35;&amp;#89;&amp;#92;&amp;#66;&amp;#101;&amp;#116;&amp;#103;&amp;#91;&amp;#95;&amp;#95;&amp;#116;&amp;#61;&amp;#43;&amp;#76;&amp;#100;&amp;#72;&amp;#112;&amp;#61;&amp;#103;&amp;#2;&amp;#18;&amp;#88;&amp;#109;&amp;#57;&amp;#34;&amp;#93;&amp;#31;&amp;#66;&amp;#118;&amp;#63;&amp;#110;&amp;#64;&amp;#93;&amp;#93;&amp;#34;&amp;#116;&amp;#103;&amp;#81;&amp;#93;&amp;#86;&amp;#69;&amp;#32;&amp;#49;&amp;#93;&amp;#94;&amp;#66;&amp;#105;&amp;#55;&amp;#43;&amp;#26;&amp;#10;&amp;#19;&amp;#115;&amp;#46;&amp;#34;&amp;#26;&amp;#28;&amp;#19;&amp;#111;&amp;#54;&amp;#32;&amp;#123;&amp;#95;&amp;#93;&amp;#111;&amp;#42;&amp;#3;&amp;#81;&amp;#92;&amp;#93;&amp;#34;&amp;#98;&amp;#103;&amp;#27;&amp;#118;&amp;#119;&amp;#48;&amp;#104;&amp;#117;&amp;#8;&amp;#18;&amp;#29;&amp;#34;&amp;#49;&amp;#40;&amp;#95;&amp;#100;&amp;#72;&amp;#112;&amp;#61;&amp;#103;&amp;#2;&amp;#18;&amp;#66;&amp;#118;&amp;#63;&amp;#103;&amp;#20;&amp;#18;&amp;#88;&amp;#109;&amp;#63;&amp;#22;&amp;#93;&amp;#92;&amp;#84;&amp;#99;&amp;#44;&amp;#44;&amp;#87;&amp;#94;&amp;#101;&amp;#121;&amp;#40;&amp;#32;&amp;#26;&amp;#10;&amp;#19;&amp;#117;&amp;#40;&amp;#41;&amp;#87;&amp;#81;&amp;#85;&amp;#34;&amp;#116;&amp;#103;&amp;#84;&amp;#95;&amp;#82;&amp;#107;&amp;#122;&amp;#127;&amp;#67;&amp;#18;&amp;#82;&amp;#111;&amp;#52;&amp;#42;&amp;#74;&amp;#117;&amp;#85;&amp;#105;&amp;#44;&amp;#103;&amp;#2;&amp;#86;&amp;#80;&amp;#108;&amp;#43;&amp;#32;&amp;#20;&amp;#18;&amp;#85;&amp;#101;&amp;#52;&amp;#32;&amp;#76;&amp;#85;&amp;#19;&amp;#58;&amp;#62;&amp;#36;&amp;#84;&amp;#67;&amp;#84;&amp;#44;&amp;#122;&amp;#40;&amp;#87;&amp;#70;&amp;#84;&amp;#34;&amp;#98;&amp;#35;&amp;#89;&amp;#92;&amp;#66;&amp;#101;&amp;#116;&amp;#103;&amp;#74;&amp;#95;&amp;#69;&amp;#97;&amp;#44;&amp;#32;&amp;#26;&amp;#10;&amp;#87;&amp;#97;&amp;#52;&amp;#54;&amp;#93;&amp;#28;&amp;#19;&amp;#114;&amp;#61;&amp;#54;&amp;#81;&amp;#74;&amp;#84;&amp;#34;&amp;#98;&amp;#35;&amp;#89;&amp;#92;&amp;#66;&amp;#101;&amp;#116;&amp;#103;&amp;#93;&amp;#84;&amp;#88;&amp;#116;&amp;#122;&amp;#127;&amp;#94;&amp;#81;&amp;#93;&amp;#115;&amp;#61;&amp;#56;&amp;#20;&amp;#18;&amp;#82;&amp;#111;&amp;#52;&amp;#42;&amp;#74;&amp;#67;&amp;#19;&amp;#58;&amp;#3;&amp;#103;&amp;#27;&amp;#1;&amp;#0;&amp;#49;&amp;#105;&amp;#116;&amp;#9;&amp;#18;&amp;#108;&amp;#44;&amp;#122;&amp;#44;&amp;#85;&amp;#81;&amp;#86;&amp;#101;&amp;#15;&amp;#36;&amp;#74;&amp;#94;&amp;#88;&amp;#110;&amp;#63;&amp;#103;&amp;#2;&amp;#86;&amp;#80;&amp;#108;&amp;#43;&amp;#32;&amp;#20;&amp;#18;&amp;#68;&amp;#112;&amp;#52;&amp;#42;&amp;#89;&amp;#84;&amp;#84;&amp;#100;&amp;#17;&amp;#40;&amp;#95;&amp;#18;&amp;#11;&amp;#34;&amp;#48;&amp;#49;&amp;#76;&amp;#64;&amp;#66;&amp;#58;&amp;#119;&amp;#106;&amp;#81;&amp;#93;&amp;#65;&amp;#114;&amp;#49;&amp;#43;&amp;#76;&amp;#94;&amp;#84;&amp;#120;&amp;#44;&amp;#107;&amp;#81;&amp;#95;&amp;#30;&amp;#120;&amp;#61;&amp;#49;&amp;#87;&amp;#95;&amp;#93;&amp;#47;&amp;#57;&amp;#54;&amp;#75;&amp;#85;&amp;#69;&amp;#115;&amp;#119;&amp;#39;&amp;#74;&amp;#95;&amp;#70;&amp;#115;&amp;#61;&amp;#55;&amp;#103;&amp;#89;&amp;#92;&amp;#97;&amp;#63;&amp;#32;&amp;#75;&amp;#31;&amp;#3;&amp;#48;&amp;#106;&amp;#119;&amp;#9;&amp;#1;&amp;#1;&amp;#49;&amp;#105;&amp;#117;&amp;#10;&amp;#0;&amp;#4;&amp;#55;&amp;#109;&amp;#112;&amp;#12;&amp;#9;&amp;#31;&amp;#115;&amp;#46;&amp;#34;&amp;#26;&amp;#77;"><g id="xe_yva6r2"><g id="SvgjsG1465" transform="matrix(1.77991 0 0 1.49937 -157.366 -75.3929)" fill="#111111"><rect y="73.14622473716736" height="1" width="1" opacity="0" fill="#111111" id="xe_8ysxc9" x="227.68438172340393" oldFill="#111111"></rect><rect y="386.14622473716736" width="258" height="5" fill="#111111" id="xe_u64n1s" x="227.68438172340393" oldFill="#111111"></rect></g><g id="SvgjsG1466" transform="matrix(3.40388 0 0 2.86738 -99.3743 -40.9618)" fill="#111111"><path xmlns="http://www.w3.org/2000/svg" d="M148.5575499534607,63.74860870838165 C151.0575499534607,63.74860870838165 153.1575499534607,61.64860870838165 153.1575499534607,59.14860870838165 S151.0575499534607,54.54860870838165 148.5575499534607,54.54860870838165 C146.0575499534607,54.54860870838165 143.9575499534607,56.64860870838165 143.9575499534607,59.14860870838165 S146.0575499534607,63.74860870838165 148.5575499534607,63.74860870838165 zM146.0575499534607,96.24860870838165 C146.0575499534607,96.94860870838166 146.6575499534607,97.54860870838165 147.3575499534607,97.54860870838165 C148.0575499534607,97.54860870838165 148.6575499534607,96.94860870838166 148.6575499534607,96.24860870838165 S148.0575499534607,94.94860870838166 147.3575499534607,94.94860870838166 C146.6575499534607,94.94860870838166 146.0575499534607,95.54860870838165 146.0575499534607,96.24860870838165 zM155.25754995346068,69.54860870838165 C156.3575499534607,69.54860870838165 157.1575499534607,68.64860870838166 157.1575499534607,67.64860870838166 C157.1575499534607,66.54860870838165 156.25754995346068,65.74860870838165 155.25754995346068,65.74860870838165 C154.1575499534607,65.74860870838165 153.3575499534607,66.64860870838166 153.3575499534607,67.64860870838166 C153.3575499534607,68.64860870838166 154.1575499534607,69.54860870838165 155.25754995346068,69.54860870838165 zM140.1575499534607,86.84860870838165 C142.6575499534607,86.84860870838165 144.75754995346068,84.74860870838165 144.75754995346068,82.24860870838165 C144.75754995346068,79.74860870838165 142.6575499534607,77.64860870838166 140.1575499534607,77.64860870838166 S135.5575499534607,79.74860870838165 135.5575499534607,82.24860870838165 C135.6575499534607,84.74860870838165 137.6575499534607,86.84860870838165 140.1575499534607,86.84860870838165 zM133.5575499534607,76.04860870838165 C134.6575499534607,76.04860870838165 135.4575499534607,75.14860870838166 135.4575499534607,74.14860870838166 C135.4575499534607,73.04860870838165 134.5575499534607,72.24860870838165 133.5575499534607,72.24860870838165 C132.4575499534607,72.24860870838165 131.6575499534607,73.14860870838166 131.6575499534607,74.14860870838166 C131.6575499534607,75.24860870838165 132.4575499534607,76.04860870838165 133.5575499534607,76.04860870838165 zM132.8575499534607,80.24860870838165 C132.8575499534607,79.54860870838165 132.25754995346068,78.94860870838166 131.5575499534607,78.94860870838166 C130.8575499534607,78.94860870838166 130.25754995346068,79.54860870838165 130.25754995346068,80.24860870838165 S130.8575499534607,81.54860870838165 131.5575499534607,81.54860870838165 C132.25754995346068,81.54860870838165 132.8575499534607,80.94860870838166 132.8575499534607,80.24860870838165 zM138.9575499534607,69.44860870838166 C140.75754995346068,69.44860870838166 142.1575499534607,68.04860870838165 142.1575499534607,66.24860870838165 S140.75754995346068,63.04860870838165 138.9575499534607,63.04860870838165 C137.1575499534607,63.04860870838165 135.75754995346068,64.44860870838166 135.75754995346068,66.24860870838165 S137.1575499534607,69.44860870838166 138.9575499534607,69.44860870838166 zM177.8575499534607,51.848608708381654 C178.5575499534607,51.848608708381654 179.1575499534607,51.24860870838165 179.1575499534607,50.54860870838165 C179.1575499534607,49.848608708381654 178.5575499534607,49.24860870838165 177.8575499534607,49.24860870838165 C177.1575499534607,49.24860870838165 176.5575499534607,49.848608708381654 176.5575499534607,50.54860870838165 C176.5575499534607,51.24860870838165 177.1575499534607,51.848608708381654 177.8575499534607,51.848608708381654 zM142.8575499534607,95.74860870838165 C142.8575499534607,92.64860870838166 140.3575499534607,90.14860870838166 137.25754995346068,90.14860870838166 C134.1575499534607,90.14860870838166 131.6575499534607,92.64860870838166 131.6575499534607,95.74860870838165 S134.1575499534607,101.34860870838165 137.25754995346068,101.34860870838165 C140.3575499534607,101.34860870838165 142.8575499534607,98.84860870838165 142.8575499534607,95.74860870838165 zM198.9575499534607,72.14860870838166 C201.4575499534607,72.14860870838166 203.5575499534607,70.04860870838165 203.5575499534607,67.54860870838165 S201.4575499534607,62.948608708381656 198.9575499534607,62.948608708381656 S194.3575499534607,65.04860870838165 194.3575499534607,67.54860870838165 S196.3575499534607,72.14860870838166 198.9575499534607,72.14860870838166 zM188.6575499534607,103.74860870838165 C188.6575499534607,105.54860870838165 190.0575499534607,106.94860870838166 191.8575499534607,106.94860870838166 C193.6575499534607,106.94860870838166 195.0575499534607,105.54860870838165 195.0575499534607,103.74860870838165 S193.6575499534607,100.54860870838165 191.8575499534607,100.54860870838165 C190.0575499534607,100.54860870838165 188.6575499534607,101.94860870838166 188.6575499534607,103.74860870838165 zM191.8575499534607,61.14860870838165 C193.6575499534607,61.14860870838165 195.0575499534607,59.74860870838165 195.0575499534607,57.948608708381656 C195.0575499534607,56.14860870838165 193.6575499534607,54.74860870838165 191.8575499534607,54.74860870838165 C190.0575499534607,54.74860870838165 188.6575499534607,56.14860870838165 188.6575499534607,57.948608708381656 C188.6575499534607,59.74860870838165 190.0575499534607,61.14860870838165 191.8575499534607,61.14860870838165 zM184.75754995346068,69.44860870838166 C186.5575499534607,69.44860870838166 187.9575499534607,68.04860870838165 187.9575499534607,66.24860870838165 S186.5575499534607,63.04860870838165 184.75754995346068,63.04860870838165 C182.9575499534607,63.04860870838165 181.5575499534607,64.44860870838166 181.5575499534607,66.24860870838165 S182.9575499534607,69.44860870838166 184.75754995346068,69.44860870838166 zM196.25754995346068,80.74860870838165 C196.25754995346068,83.84860870838165 198.75754995346068,86.34860870838165 201.8575499534607,86.34860870838165 C204.9575499534607,86.34860870838165 207.4575499534607,83.84860870838165 207.4575499534607,80.74860870838165 S204.9575499534607,75.14860870838166 201.8575499534607,75.14860870838166 C198.75754995346068,75.14860870838166 196.25754995346068,77.64860870838166 196.25754995346068,80.74860870838165 zM193.0575499534607,80.24860870838165 C193.0575499534607,79.54860870838165 192.4575499534607,78.94860870838166 191.75754995346068,78.94860870838166 C191.0575499534607,78.94860870838166 190.4575499534607,79.54860870838165 190.4575499534607,80.24860870838165 S191.0575499534607,81.54860870838165 191.75754995346068,81.54860870838165 C192.4575499534607,81.54860870838165 193.0575499534607,80.94860870838166 193.0575499534607,80.24860870838165 zM183.8575499534607,54.348608708381654 C184.9575499534607,54.348608708381654 185.75754995346068,53.448608708381656 185.75754995346068,52.448608708381656 S184.8575499534607,50.54860870838165 183.8575499534607,50.54860870838165 C182.75754995346068,50.54860870838165 181.9575499534607,51.448608708381656 181.9575499534607,52.448608708381656 S182.8575499534607,54.348608708381654 183.8575499534607,54.348608708381654 zM189.8575499534607,76.04860870838165 C190.9575499534607,76.04860870838165 191.75754995346068,75.14860870838166 191.75754995346068,74.14860870838166 C191.75754995346068,73.04860870838165 190.8575499534607,72.24860870838165 189.8575499534607,72.24860870838165 S187.9575499534607,73.14860870838166 187.9575499534607,74.14860870838166 C187.9575499534607,75.24860870838165 188.8575499534607,76.04860870838165 189.8575499534607,76.04860870838165 zM150.4575499534607,72.74860870838165 C150.4575499534607,70.94860870838166 149.0575499534607,69.54860870838165 147.25754995346068,69.54860870838165 C145.4575499534607,69.54860870838165 144.0575499534607,70.94860870838166 144.0575499534607,72.74860870838165 S145.4575499534607,75.94860870838166 147.25754995346068,75.94860870838166 C149.0575499534607,75.94860870838166 150.4575499534607,74.54860870838165 150.4575499534607,72.74860870838165 zM183.8575499534607,106.94860870838166 C182.75754995346068,106.94860870838166 181.9575499534607,107.84860870838165 181.9575499534607,108.84860870838165 C181.9575499534607,109.94860870838166 182.8575499534607,110.74860870838165 183.8575499534607,110.74860870838165 C184.9575499534607,110.74860870838165 185.75754995346068,109.84860870838165 185.75754995346068,108.84860870838165 C185.75754995346068,107.84860870838165 184.9575499534607,106.94860870838166 183.8575499534607,106.94860870838166 zM177.3575499534607,114.64860870838166 C174.25754995346068,114.64860870838166 171.75754995346068,117.14860870838166 171.75754995346068,120.24860870838165 S174.25754995346068,125.84860870838165 177.3575499534607,125.84860870838165 C180.4575499534607,125.84860870838165 182.9575499534607,123.34860870838165 182.9575499534607,120.24860870838165 S180.4575499534607,114.64860870838166 177.3575499534607,114.64860870838166 zM190.5575499534607,112.74860870838165 C188.0575499534607,112.74860870838165 185.9575499534607,114.84860870838165 185.9575499534607,117.34860870838165 S188.0575499534607,121.94860870838166 190.5575499534607,121.94860870838166 C193.0575499534607,121.94860870838166 195.1575499534607,119.84860870838165 195.1575499534607,117.34860870838165 S193.0575499534607,112.74860870838165 190.5575499534607,112.74860870838165 zM176.5575499534607,110.74860870838165 C176.5575499534607,111.44860870838166 177.1575499534607,112.04860870838165 177.8575499534607,112.04860870838165 C178.5575499534607,112.04860870838165 179.1575499534607,111.44860870838166 179.1575499534607,110.74860870838165 C179.1575499534607,110.04860870838165 178.5575499534607,109.44860870838166 177.8575499534607,109.44860870838166 C177.1575499534607,109.54860870838165 176.5575499534607,110.04860870838165 176.5575499534607,110.74860870838165 zM207.5575499534607,94.94860870838166 C206.8575499534607,94.94860870838166 206.25754995346068,95.54860870838165 206.25754995346068,96.24860870838165 S206.8575499534607,97.54860870838165 207.5575499534607,97.54860870838165 C208.25754995346068,97.54860870838165 208.8575499534607,96.94860870838166 208.8575499534607,96.24860870838165 S208.1575499534607,94.94860870838166 207.5575499534607,94.94860870838166 zM205.5575499534607,100.44860870838166 C204.4575499534607,100.44860870838166 203.6575499534607,101.34860870838165 203.6575499534607,102.34860870838165 C203.6575499534607,103.44860870838166 204.5575499534607,104.24860870838165 205.5575499534607,104.24860870838165 C206.6575499534607,104.24860870838165 207.4575499534607,103.34860870838165 207.4575499534607,102.34860870838165 C207.4575499534607,101.24860870838165 206.6575499534607,100.44860870838166 205.5575499534607,100.44860870838166 zM175.25754995346068,63.74860870838165 C177.75754995346068,63.74860870838165 179.8575499534607,61.64860870838165 179.8575499534607,59.14860870838165 S177.75754995346068,54.54860870838165 175.25754995346068,54.54860870838165 S170.6575499534607,56.64860870838165 170.6575499534607,59.14860870838165 S172.75754995346068,63.74860870838165 175.25754995346068,63.74860870838165 zM198.9575499534607,89.64860870838166 C196.4575499534607,89.64860870838166 194.3575499534607,91.74860870838165 194.3575499534607,94.24860870838165 C194.3575499534607,96.74860870838165 196.4575499534607,98.84860870838165 198.9575499534607,98.84860870838165 S203.5575499534607,96.74860870838165 203.5575499534607,94.24860870838165 C203.4575499534607,91.74860870838165 201.4575499534607,89.64860870838166 198.9575499534607,89.64860870838166 zM140.1575499534607,104.34860870838165 C137.6575499534607,104.34860870838165 135.5575499534607,106.44860870838166 135.5575499534607,108.94860870838166 S137.6575499534607,113.54860870838165 140.1575499534607,113.54860870838165 S144.75754995346068,111.44860870838166 144.75754995346068,108.94860870838166 S142.75754995346068,104.34860870838165 140.1575499534607,104.34860870838165 zM200.1575499534607,107.04860870838165 C198.3575499534607,107.04860870838165 196.9575499534607,108.44860870838166 196.9575499534607,110.24860870838165 S198.3575499534607,113.44860870838166 200.1575499534607,113.44860870838166 C201.9575499534607,113.44860870838166 203.3575499534607,112.04860870838165 203.3575499534607,110.24860870838165 S201.9575499534607,107.04860870838165 200.1575499534607,107.04860870838165 zM149.25754995346068,100.44860870838166 C148.1575499534607,100.44860870838166 147.3575499534607,101.34860870838165 147.3575499534607,102.34860870838165 C147.3575499534607,103.44860870838166 148.25754995346068,104.24860870838165 149.25754995346068,104.24860870838165 S151.1575499534607,103.34860870838165 151.1575499534607,102.34860870838165 C151.1575499534607,101.24860870838165 150.25754995346068,100.44860870838166 149.25754995346068,100.44860870838166 zM154.3575499534607,107.04860870838165 C152.5575499534607,107.04860870838165 151.1575499534607,108.44860870838166 151.1575499534607,110.24860870838165 S152.5575499534607,113.44860870838166 154.3575499534607,113.44860870838166 C156.1575499534607,113.44860870838166 157.5575499534607,112.04860870838165 157.5575499534607,110.24860870838165 S156.1575499534607,107.04860870838165 154.3575499534607,107.04860870838165 zM155.25754995346068,122.14860870838166 C154.1575499534607,122.14860870838166 153.3575499534607,123.04860870838165 153.3575499534607,124.04860870838165 S154.25754995346068,125.94860870838164 155.25754995346068,125.94860870838164 C156.3575499534607,125.94860870838164 157.1575499534607,125.04860870838165 157.1575499534607,124.04860870838165 S156.25754995346068,122.14860870838166 155.25754995346068,122.14860870838166 zM147.25754995346068,115.34860870838165 C145.4575499534607,115.34860870838165 144.0575499534607,116.74860870838165 144.0575499534607,118.54860870838165 C144.0575499534607,120.34860870838165 145.4575499534607,121.74860870838165 147.25754995346068,121.74860870838165 C149.0575499534607,121.74860870838165 150.4575499534607,120.34860870838165 150.4575499534607,118.54860870838165 C150.4575499534607,116.74860870838165 149.0575499534607,115.34860870838165 147.25754995346068,115.34860870838165 zM160.0575499534607,65.74860870838165 C160.0575499534607,66.44860870838166 160.6575499534607,67.04860870838165 161.3575499534607,67.04860870838165 C162.0575499534607,67.04860870838165 162.6575499534607,66.44860870838166 162.6575499534607,65.74860870838165 C162.6575499534607,65.04860870838165 162.0575499534607,64.44860870838166 161.3575499534607,64.44860870838166 C160.5575499534607,64.44860870838166 160.0575499534607,65.04860870838165 160.0575499534607,65.74860870838165 zM167.3575499534607,56.14860870838165 C167.3575499534607,53.04860870838165 164.8575499534607,50.54860870838165 161.75754995346068,50.54860870838165 C158.6575499534607,50.54860870838165 156.1575499534607,53.04860870838165 156.1575499534607,56.14860870838165 S158.6575499534607,61.74860870838165 161.75754995346068,61.74860870838165 C164.8575499534607,61.84860870838165 167.3575499534607,59.348608708381654 167.3575499534607,56.14860870838165 zM161.25754995346068,124.64860870838166 C160.5575499534607,124.64860870838166 159.9575499534607,125.24860870838165 159.9575499534607,125.94860870838164 C159.9575499534607,126.64860870838166 160.5575499534607,127.24860870838165 161.25754995346068,127.24860870838165 C161.9575499534607,127.24860870838165 162.5575499534607,126.64860870838166 162.5575499534607,125.94860870838164 C162.5575499534607,125.24860870838165 161.9575499534607,124.64860870838166 161.25754995346068,124.64860870838166 zM163.8575499534607,112.74860870838165 C161.3575499534607,112.74860870838165 159.25754995346068,114.84860870838165 159.25754995346068,117.34860870838165 S161.3575499534607,121.94860870838166 163.8575499534607,121.94860870838166 S168.4575499534607,119.84860870838165 168.4575499534607,117.34860870838165 S166.3575499534607,112.74860870838165 163.8575499534607,112.74860870838165 z" fill="#111111" id="xe_257ju7" oldFill="#111111"></path></g><g id="SvgjsG1467" transform="matrix(5.3039 0 0 4.46793 -157.366 195.719)" fill="#111111"><path d="M76.40747183561325,58.8667786192894 C76.40747183561325,55.706778619289395 78.92747183561325,53.1867786192894 82.08747183561326,53.1867786192894 C83.92747183561325,53.1867786192894 85.56747183561325,54.066778619289394 86.60747183561325,55.426778619289394 L86.60747183561325,35.946778619289404 L87.76747183561325,35.946778619289404 L87.76747183561325,64.5467786192894 L86.60747183561325,64.5467786192894 L86.60747183561325,62.2667786192894 C85.56747183561325,63.626778619289404 83.92747183561325,64.5467786192894 82.08747183561326,64.5467786192894 C78.92747183561325,64.5467786192894 76.40747183561325,61.986778619289396 76.40747183561325,58.8667786192894 zM77.56747183561325,58.8667786192894 C77.56747183561325,61.346778619289395 79.60747183561325,63.346778619289395 82.08747183561326,63.346778619289395 S86.60747183561325,61.346778619289395 86.60747183561325,58.8667786192894 C86.60747183561325,56.346778619289395 84.56747183561325,54.346778619289395 82.08747183561326,54.346778619289395 S77.56747183561325,56.346778619289395 77.56747183561325,58.8667786192894 zM92.32747183561325,62.42677861928941 C94.08747183561326,63.78677861928941 96.64747183561325,63.6667786192894 98.28747183561325,62.026778619289395 L99.08747183561326,62.86677861928939 C96.88747183561325,65.06677861928941 93.28747183561325,65.06677861928941 91.04747183561325,62.86677861928939 C88.84747183561325,60.666778619289396 88.84747183561325,57.0667786192894 91.04747183561325,54.8267786192894 C93.12747183561325,52.7467786192894 96.44747183561324,52.626778619289404 98.64747183561325,54.426778619289394 L98.68747183561325,54.426778619289394 C99.08747183561326,54.8267786192894 99.08747183561326,54.8267786192894 99.52747183561326,55.2267786192894 L92.32747183561325,62.42677861928941 zM91.88747183561325,55.6667786192894 C90.28747183561325,57.2667786192894 90.12747183561325,59.8267786192894 91.48747183561325,61.5867786192894 L97.84747183561325,55.2667786192894 C96.08747183561326,53.9067786192894 93.52747183561326,54.0267786192894 91.88747183561325,55.6667786192894 zM101.12747183561325,64.5467786192894 L101.12747183561325,35.946778619289404 L102.28747183561325,35.946778619289404 L102.28747183561325,64.5467786192894 L101.12747183561325,64.5467786192894 zM117.88747183561324,65.1067786192894 C115.52747183561326,65.1067786192894 113.28747183561325,63.986778619289396 111.88747183561324,62.0667786192894 L112.80747183561326,61.3867786192894 C114.00747183561325,62.986778619289396 115.88747183561324,63.946778619289404 117.88747183561324,63.946778619289404 C121.28747183561325,63.946778619289404 124.08747183561326,61.1467786192894 124.08747183561326,57.706778619289395 C124.08747183561326,54.1467786192894 121.36747183561326,51.5467786192894 118.72747183561324,48.986778619289396 C116.16747183561324,46.5867786192894 113.56747183561325,44.066778619289394 113.56747183561325,40.7467786192894 C113.56747183561325,37.7867786192894 116.00747183561325,35.346778619289395 118.96747183561325,35.346778619289395 C120.68747183561325,35.346778619289395 122.32747183561325,36.1867786192894 123.36747183561326,37.5867786192894 L122.40747183561325,38.2667786192894 C121.60747183561325,37.1867786192894 120.32747183561325,36.5067786192894 118.96747183561325,36.5067786192894 C116.64747183561326,36.5067786192894 114.72747183561324,38.42677861928941 114.72747183561324,40.7467786192894 C114.72747183561324,43.5467786192894 117.04747183561325,45.78677861928939 119.52747183561326,48.1467786192894 C122.32747183561325,50.8667786192894 125.24747183561325,53.6667786192894 125.24747183561325,57.706778619289395 C125.24747183561325,61.7867786192894 121.92747183561326,65.1067786192894 117.88747183561324,65.1067786192894 zM141.12747183561325,37.1067786192894 C133.88747183561324,37.1067786192894 128.04747183561324,42.986778619289396 128.04747183561324,50.2267786192894 S133.88747183561324,63.346778619289395 141.12747183561325,63.346778619289395 S154.28747183561325,57.46677861928941 154.28747183561325,50.2267786192894 S148.36747183561323,37.1067786192894 141.12747183561325,37.1067786192894 zM141.12747183561325,35.946778619289404 C149.04747183561324,35.946778619289404 155.44747183561327,42.346778619289395 155.44747183561327,50.2267786192894 S149.04747183561324,64.5467786192894 141.12747183561325,64.5467786192894 C133.24747183561325,64.5467786192894 126.84747183561325,58.1067786192894 126.84747183561325,50.2267786192894 S133.24747183561325,35.946778619289404 141.12747183561325,35.946778619289404 zM158.20747183561326,63.346778619289395 L162.92747183561323,63.346778619289395 L162.92747183561323,64.5467786192894 L157.04747183561324,64.5467786192894 L157.04747183561324,35.946778619289404 L158.20747183561326,35.946778619289404 L158.20747183561326,63.346778619289395 z" fill="#111111" id="xe_2kv4i2" oldFill="#111111"></path></g><g id="SvgjsG1468" transform="matrix(2.00383 0 0 1.688 -105.846 403.727)" fill="#111111"><path d="M205.82106776714326,71.89226858139041 L208.02106776714325,80.17226858139041 L210.28106776714324,71.89226858139041 C210.32106776714326,71.83226858139041 210.36106776714325,71.7722685813904 210.44106776714324,71.7722685813904 L212.72106776714324,71.7722685813904 C212.84106776714324,71.7722685813904 212.92106776714326,71.87226858139041 212.88106776714324,71.9922685813904 L209.42106776714326,84.8522685813904 C209.38106776714324,84.93226858139042 209.34106776714324,84.97226858139041 209.26106776714326,84.97226858139041 L206.78106776714324,84.97226858139041 C206.72106776714324,84.97226858139041 206.66106776714324,84.93226858139042 206.64106776714326,84.8522685813904 L203.18106776714325,71.9922685813904 C203.16106776714324,71.87226858139041 203.24106776714325,71.7722685813904 203.36106776714325,71.7722685813904 L205.66106776714324,71.7722685813904 C205.74106776714325,71.7722685813904 205.78106776714324,71.83226858139041 205.82106776714326,71.89226858139041 zM207.98106776714326,83.59226858139041 L204.64106776714326,72.9322685813904 C204.58106776714325,72.7722685813904 204.36106776714325,72.87226858139041 204.42106776714326,72.9922685813904 L207.74106776714325,83.67226858139041 C207.82106776714326,83.97226858139041 208.14106776714326,83.9922685813904 208.24106776714325,83.67226858139041 L211.44106776714324,72.9922685813904 C211.48106776714326,72.87226858139041 211.26106776714326,72.7922685813904 211.22106776714324,72.9322685813904 L207.98106776714326,83.59226858139041 zM219.56606776714324,84.97226858139041 C219.46606776714324,84.97226858139041 219.40606776714324,84.89226858139041 219.40606776714324,84.7922685813904 L219.40606776714324,71.95226858139041 C219.40606776714324,71.8522685813904 219.46606776714324,71.7722685813904 219.56606776714324,71.7722685813904 L226.36606776714325,71.7722685813904 C226.46606776714324,71.7722685813904 226.54606776714326,71.8522685813904 226.54606776714326,71.95226858139041 L226.54606776714326,74.09226858139041 C226.54606776714326,74.19226858139041 226.46606776714324,74.2722685813904 226.36606776714325,74.2722685813904 L222.04606776714326,74.2722685813904 L222.04606776714326,76.9922685813904 L225.40606776714324,76.9922685813904 C225.50606776714324,76.9922685813904 225.56606776714324,77.0722685813904 225.56606776714324,77.17226858139041 L225.56606776714324,79.3522685813904 C225.56606776714324,79.45226858139041 225.50606776714324,79.53226858139041 225.40606776714324,79.53226858139041 L222.04606776714326,79.53226858139041 L222.04606776714326,82.47226858139041 L226.36606776714325,82.47226858139041 C226.46606776714324,82.47226858139041 226.54606776714326,82.55226858139041 226.54606776714326,82.65226858139042 L226.54606776714326,84.7922685813904 C226.54606776714326,84.89226858139041 226.46606776714324,84.97226858139041 226.36606776714325,84.97226858139041 L219.56606776714324,84.97226858139041 zM220.56606776714324,73.03226858139041 L220.56606776714324,83.67226858139041 C220.56606776714324,83.7922685813904 220.64606776714325,83.83226858139041 220.72606776714326,83.83226858139041 L225.32606776714326,83.83226858139041 C225.50606776714324,83.83226858139041 225.46606776714324,83.59226858139041 225.32606776714326,83.59226858139041 L220.82606776714326,83.59226858139041 L220.82606776714326,78.37226858139041 L224.50606776714324,78.37226858139041 C224.62606776714324,78.37226858139041 224.62606776714324,78.09226858139041 224.50606776714324,78.09226858139041 L220.82606776714326,78.09226858139041 L220.82606776714326,73.1322685813904 L225.32606776714326,73.1322685813904 C225.46606776714324,73.1322685813904 225.50606776714324,72.87226858139041 225.32606776714326,72.87226858139041 L220.72606776714326,72.87226858139041 C220.64606776714325,72.87226858139041 220.56606776714324,72.9322685813904 220.56606776714324,73.03226858139041 zM239.13106776714324,71.95226858139041 C239.13106776714324,71.8522685813904 239.21106776714325,71.7722685813904 239.31106776714324,71.7722685813904 L241.61106776714325,71.7722685813904 C241.71106776714325,71.7722685813904 241.79106776714326,71.8522685813904 241.79106776714326,71.95226858139041 L241.79106776714326,84.7922685813904 C241.79106776714326,84.89226858139041 241.71106776714325,84.97226858139041 241.61106776714325,84.97226858139041 L239.39106776714326,84.97226858139041 C239.31106776714324,84.97226858139041 239.23106776714326,84.93226858139042 239.21106776714325,84.87226858139041 L236.29106776714326,78.2922685813904 L236.29106776714326,84.7922685813904 C236.29106776714326,84.89226858139041 236.21106776714325,84.97226858139041 236.11106776714325,84.97226858139041 L233.83106776714325,84.97226858139041 C233.73106776714326,84.97226858139041 233.67106776714326,84.89226858139041 233.67106776714326,84.7922685813904 L233.67106776714326,71.95226858139041 C233.67106776714326,71.8522685813904 233.73106776714326,71.7722685813904 233.83106776714325,71.7722685813904 L236.19106776714324,71.7722685813904 C236.27106776714325,71.7722685813904 236.31106776714324,71.83226858139041 236.33106776714325,71.87226858139041 L239.13106776714324,78.33226858139041 L239.13106776714324,71.95226858139041 zM240.57106776714323,83.7722685813904 L240.57106776714323,72.97226858139041 C240.57106776714323,72.83226858139041 240.31106776714324,72.7922685813904 240.31106776714324,72.97226858139041 L240.31106776714324,83.25226858139041 L235.09106776714324,72.9322685813904 C235.03106776714324,72.8522685813904 234.87106776714324,72.8522685813904 234.87106776714324,72.97226858139041 L234.87106776714324,83.75226858139041 C234.87106776714324,83.93226858139042 235.11106776714325,83.93226858139042 235.11106776714325,83.75226858139041 L235.11106776714325,73.4922685813904 L240.31106776714324,83.7922685813904 C240.39106776714326,83.93226858139042 240.57106776714323,83.89226858139041 240.57106776714323,83.7722685813904 zM251.35606776714326,74.2722685813904 L248.51606776714326,74.2722685813904 C248.41606776714326,74.2722685813904 248.33606776714325,74.19226858139041 248.33606776714325,74.09226858139041 L248.33606776714325,71.95226858139041 C248.33606776714325,71.8522685813904 248.41606776714326,71.7722685813904 248.51606776714326,71.7722685813904 L256.85606776714326,71.7722685813904 C256.9560677671433,71.7722685813904 257.03606776714327,71.8522685813904 257.03606776714327,71.95226858139041 L257.03606776714327,74.09226858139041 C257.03606776714327,74.19226858139041 256.9560677671433,74.2722685813904 256.85606776714326,74.2722685813904 L254.01606776714326,74.2722685813904 L254.01606776714326,84.7922685813904 C254.01606776714326,84.89226858139041 253.93606776714324,84.97226858139041 253.83606776714325,84.97226858139041 L251.53606776714327,84.97226858139041 C251.43606776714324,84.97226858139041 251.35606776714326,84.89226858139041 251.35606776714326,84.7922685813904 L251.35606776714326,74.2722685813904 zM255.63606776714326,72.87226858139041 L249.59606776714324,72.87226858139041 C249.45606776714325,72.87226858139041 249.45606776714325,73.1322685813904 249.59606776714324,73.1322685813904 L252.55606776714325,73.1322685813904 L252.55606776714325,83.73226858139041 C252.55606776714325,83.87226858139041 252.81606776714324,83.87226858139041 252.81606776714324,83.73226858139041 L252.81606776714324,73.1322685813904 L255.63606776714326,73.1322685813904 C255.83606776714325,73.1322685813904 255.81606776714324,72.87226858139041 255.63606776714326,72.87226858139041 zM269.94106776714324,80.3522685813904 L269.94106776714324,71.95226858139041 C269.94106776714324,71.8522685813904 270.0210677671432,71.7722685813904 270.12106776714324,71.7722685813904 L272.4010677671432,71.7722685813904 C272.50106776714324,71.7722685813904 272.5810677671433,71.8522685813904 272.5810677671433,71.95226858139041 L272.5810677671433,80.9922685813904 C272.5810677671433,83.87226858139041 271.00106776714324,85.17226858139041 268.0210677671432,85.17226858139041 C265.2010677671433,85.17226858139041 263.44106776714324,84.05226858139041 263.44106776714324,80.9922685813904 L263.44106776714324,71.95226858139041 C263.44106776714324,71.8522685813904 263.5210677671432,71.7722685813904 263.62106776714324,71.7722685813904 L265.92106776714326,71.7722685813904 C266.0210677671432,71.7722685813904 266.10106776714326,71.8522685813904 266.10106776714326,71.95226858139041 L266.10106776714326,80.3522685813904 C266.10106776714326,82.09226858139041 267.0810677671433,82.47226858139041 267.9010677671432,82.47226858139041 L268.1410677671432,82.47226858139041 C269.38106776714324,82.47226858139041 269.94106776714324,81.6322685813904 269.94106776714324,80.3522685813904 zM264.68106776714325,73.05226858139041 L264.68106776714325,80.83226858139041 C264.68106776714325,82.6322685813904 265.9010677671432,83.93226858139042 267.80106776714325,83.93226858139042 L268.30106776714325,83.93226858139042 C270.20106776714323,83.93226858139042 271.44106776714324,82.5722685813904 271.44106776714324,80.83226858139041 L271.44106776714324,73.05226858139041 C271.44106776714324,72.87226858139041 271.20106776714323,72.8522685813904 271.20106776714323,73.05226858139041 L271.20106776714323,80.83226858139041 C271.20106776714323,82.47226858139041 270.0210677671432,83.67226858139041 268.30106776714325,83.67226858139041 L267.80106776714325,83.67226858139041 C266.12106776714324,83.67226858139041 264.92106776714326,82.59226858139041 264.92106776714326,80.83226858139041 L264.92106776714326,73.05226858139041 C264.92106776714326,72.87226858139041 264.68106776714325,72.87226858139041 264.68106776714325,73.05226858139041 zM287.42606776714325,79.75226858139041 C287.1460677671432,80.33226858139041 286.74606776714324,80.7722685813904 286.18606776714324,81.03226858139041 L287.86606776714325,84.73226858139041 C287.92606776714325,84.8522685813904 287.84606776714327,84.97226858139041 287.72606776714326,84.97226858139041 L285.2660677671432,84.97226858139041 C285.18606776714324,84.97226858139041 285.1460677671432,84.93226858139042 285.12606776714324,84.87226858139041 L283.56606776714324,81.47226858139041 L282.54606776714326,81.47226858139041 L282.54606776714326,84.7922685813904 C282.54606776714326,84.89226858139041 282.4660677671433,84.97226858139041 282.36606776714325,84.97226858139041 L280.06606776714324,84.97226858139041 C279.98606776714325,84.97226858139041 279.92606776714325,84.89226858139041 279.92606776714325,84.7922685813904 L279.92606776714325,71.95226858139041 C279.92606776714325,71.8522685813904 279.98606776714325,71.7722685813904 280.06606776714324,71.7722685813904 L284.22606776714326,71.7722685813904 C286.44606776714323,71.7722685813904 287.78606776714327,73.03226858139041 287.78606776714327,75.37226858139041 L287.78606776714327,77.89226858139041 C287.78606776714327,78.59226858139041 287.66606776714326,79.25226858139041 287.42606776714325,79.75226858139041 zM285.16606776714326,77.2722685813904 L285.16606776714326,75.97226858139041 C285.16606776714326,74.5722685813904 284.6460677671432,74.43226858139042 283.12606776714324,74.43226858139042 L282.54606776714326,74.43226858139042 L282.54606776714326,78.8522685813904 L283.12606776714324,78.8522685813904 C284.38606776714323,78.8522685813904 285.12606776714324,78.83226858139041 285.16606776714326,77.2722685813904 zM281.38606776714323,83.75226858139041 L281.38606776714323,80.33226858139041 L284.2660677671432,80.33226858139041 L285.94606776714323,83.7922685813904 C285.98606776714325,83.89226858139041 286.22606776714326,83.8522685813904 286.16606776714326,83.67226858139041 L284.48606776714325,80.2722685813904 C286.04606776714326,80.05226858139041 286.5860677671433,79.23226858139041 286.5860677671433,77.75226858139041 L286.5860677671433,75.25226858139041 C286.5860677671433,73.05226858139041 284.5860677671433,72.87226858139041 283.9660677671433,72.87226858139041 L281.2660677671432,72.87226858139041 C281.22606776714326,72.87226858139041 281.1460677671432,72.9322685813904 281.1460677671432,72.9922685813904 L281.1460677671432,83.75226858139041 C281.1460677671432,83.89226858139041 281.38606776714323,83.89226858139041 281.38606776714323,83.75226858139041 zM286.34606776714327,75.25226858139041 L286.34606776714327,77.75226858139041 C286.34606776714327,79.7922685813904 285.04606776714326,80.0722685813904 283.78606776714327,80.0722685813904 L281.38606776714323,80.0722685813904 L281.38606776714323,73.1322685813904 L283.9660677671433,73.1322685813904 C286.12606776714324,73.1322685813904 286.34606776714327,74.59226858139041 286.34606776714327,75.25226858139041 zM295.23106776714326,84.97226858139041 C295.13106776714324,84.97226858139041 295.07106776714323,84.89226858139041 295.07106776714323,84.7922685813904 L295.07106776714323,71.95226858139041 C295.07106776714323,71.8522685813904 295.13106776714324,71.7722685813904 295.23106776714326,71.7722685813904 L302.03106776714327,71.7722685813904 C302.13106776714324,71.7722685813904 302.2110677671433,71.8522685813904 302.2110677671433,71.95226858139041 L302.2110677671433,74.09226858139041 C302.2110677671433,74.19226858139041 302.13106776714324,74.2722685813904 302.03106776714327,74.2722685813904 L297.7110677671433,74.2722685813904 L297.7110677671433,76.9922685813904 L301.07106776714323,76.9922685813904 C301.17106776714326,76.9922685813904 301.23106776714326,77.0722685813904 301.23106776714326,77.17226858139041 L301.23106776714326,79.3522685813904 C301.23106776714326,79.45226858139041 301.17106776714326,79.53226858139041 301.07106776714323,79.53226858139041 L297.7110677671433,79.53226858139041 L297.7110677671433,82.47226858139041 L302.03106776714327,82.47226858139041 C302.13106776714324,82.47226858139041 302.2110677671433,82.55226858139041 302.2110677671433,82.65226858139042 L302.2110677671433,84.7922685813904 C302.2110677671433,84.89226858139041 302.13106776714324,84.97226858139041 302.03106776714327,84.97226858139041 L295.23106776714326,84.97226858139041 zM296.23106776714326,73.03226858139041 L296.23106776714326,83.67226858139041 C296.23106776714326,83.7922685813904 296.31106776714324,83.83226858139041 296.3910677671432,83.83226858139041 L300.99106776714325,83.83226858139041 C301.17106776714326,83.83226858139041 301.13106776714324,83.59226858139041 300.99106776714325,83.59226858139041 L296.49106776714325,83.59226858139041 L296.49106776714325,78.37226858139041 L300.17106776714326,78.37226858139041 C300.29106776714326,78.37226858139041 300.29106776714326,78.09226858139041 300.17106776714326,78.09226858139041 L296.49106776714325,78.09226858139041 L296.49106776714325,73.1322685813904 L300.99106776714325,73.1322685813904 C301.13106776714324,73.1322685813904 301.17106776714326,72.87226858139041 300.99106776714325,72.87226858139041 L296.3910677671432,72.87226858139041 C296.31106776714324,72.87226858139041 296.23106776714326,72.9322685813904 296.23106776714326,73.03226858139041 zM313.8360677671433,76.87226858139041 C315.35606776714326,77.59226858139041 317.3360677671433,78.73226858139041 317.3360677671433,80.7922685813904 C317.3360677671433,81.39226858139041 317.23606776714325,82.55226858139041 316.57606776714323,83.53226858139041 C315.8360677671433,84.6322685813904 314.67606776714325,85.17226858139041 313.07606776714323,85.17226858139041 C311.37606776714324,85.17226858139041 309.3960677671432,84.3522685813904 308.7760677671432,82.4922685813904 C308.75606776714324,82.43226858139042 308.7760677671432,82.37226858139041 308.8360677671433,82.33226858139041 L310.67606776714325,80.75226858139041 C310.75606776714324,80.69226858139041 310.87606776714324,80.69226858139041 310.93606776714324,80.7922685813904 C310.97606776714326,80.89226858139041 311.05606776714325,81.05226858139041 311.15606776714327,81.25226858139041 C311.4560677671433,81.87226858139041 312.17606776714325,82.4922685813904 312.97606776714326,82.4922685813904 C313.59606776714327,82.4922685813904 314.43606776714324,82.15226858139042 314.43606776714324,81.19226858139041 C314.43606776714324,80.2722685813904 313.17606776714325,79.75226858139041 312.3960677671432,79.45226858139041 C311.49606776714324,79.09226858139041 310.57606776714323,78.6322685813904 309.79606776714326,77.95226858139041 C308.97606776714326,77.19226858139041 308.57606776714323,76.3522685813904 308.57606776714323,75.3522685813904 C308.57606776714323,72.8522685813904 310.87606776714324,71.59226858139041 313.05606776714325,71.59226858139041 C314.7760677671432,71.59226858139041 316.05606776714325,72.4922685813904 316.8960677671432,74.2722685813904 C316.93606776714324,74.3522685813904 316.8960677671432,74.45226858139041 316.8360677671433,74.4922685813904 L315.05606776714325,75.73226858139041 C314.97606776714326,75.7722685813904 314.93606776714324,75.7722685813904 314.85606776714326,75.67226858139041 C314.17606776714325,74.69226858139041 313.57606776714323,74.23226858139041 312.7760677671432,74.23226858139041 C312.35606776714326,74.23226858139041 311.37606776714324,74.39226858139041 311.37606776714324,75.1322685813904 C311.37606776714324,76.03226858139041 313.03606776714327,76.4922685813904 313.8360677671433,76.87226858139041 zM310.19606776714323,82.39226858139041 C310.69606776714323,83.39226858139041 312.07606776714323,83.97226858139041 313.19606776714323,83.97226858139041 C314.65606776714327,83.97226858139041 315.8360677671433,82.97226858139041 315.99606776714324,81.45226858139041 C316.19606776714323,79.59226858139041 314.73606776714325,78.7922685813904 313.29606776714326,78.0722685813904 L312.65606776714327,77.7922685813904 C311.17606776714325,77.1322685813904 310.09606776714327,76.6322685813904 310.09606776714327,75.25226858139041 C310.09606776714327,73.73226858139041 311.49606776714324,73.03226858139041 312.87606776714324,73.03226858139041 C314.13606776714323,73.03226858139041 314.79606776714326,73.7722685813904 315.13606776714323,74.23226858139041 C315.25606776714324,74.39226858139041 315.4560677671433,74.25226858139041 315.3360677671433,74.09226858139041 C314.99606776714324,73.67226858139041 314.2760677671432,72.7922685813904 312.87606776714324,72.7922685813904 C311.29606776714326,72.7922685813904 309.85606776714326,73.5722685813904 309.85606776714326,75.25226858139041 C309.85606776714326,76.75226858139041 311.05606776714325,77.33226858139041 312.57606776714323,78.03226858139041 L313.19606776714323,78.33226858139041 C315.17606776714325,79.2722685813904 315.8960677671432,80.15226858139042 315.73606776714325,81.43226858139042 C315.43606776714324,83.47226858139041 313.87606776714324,83.73226858139041 313.19606776714323,83.73226858139041 C311.69606776714323,83.73226858139041 310.69606776714323,82.83226858139041 310.3960677671432,82.2722685813904 C310.29606776714326,82.17226858139041 310.15606776714327,82.2722685813904 310.19606776714323,82.39226858139041 zM335.4660677671433,84.97226858139041 C335.36606776714325,84.97226858139041 335.30606776714325,84.89226858139041 335.30606776714325,84.7922685813904 L335.30606776714325,71.95226858139041 C335.30606776714325,71.8522685813904 335.36606776714325,71.7722685813904 335.4660677671433,71.7722685813904 L337.74606776714324,71.7722685813904 C337.84606776714327,71.7722685813904 337.92606776714325,71.8522685813904 337.92606776714325,71.95226858139041 L337.92606776714325,84.7922685813904 C337.92606776714325,84.89226858139041 337.84606776714327,84.97226858139041 337.74606776714324,84.97226858139041 L335.4660677671433,84.97226858139041 zM336.50606776714324,72.97226858139041 L336.50606776714324,83.75226858139041 C336.50606776714324,83.93226858139042 336.72606776714326,83.93226858139042 336.72606776714326,83.75226858139041 L336.72606776714326,72.97226858139041 C336.72606776714326,72.83226858139041 336.50606776714324,72.83226858139041 336.50606776714324,72.97226858139041 zM350.81106776714324,71.95226858139041 C350.81106776714324,71.8522685813904 350.8910677671432,71.7722685813904 350.99106776714325,71.7722685813904 L353.29106776714326,71.7722685813904 C353.3910677671432,71.7722685813904 353.47106776714327,71.8522685813904 353.47106776714327,71.95226858139041 L353.47106776714327,84.7922685813904 C353.47106776714327,84.89226858139041 353.3910677671432,84.97226858139041 353.29106776714326,84.97226858139041 L351.0710677671433,84.97226858139041 C350.99106776714325,84.97226858139041 350.9110677671432,84.93226858139042 350.8910677671432,84.87226858139041 L347.97106776714327,78.2922685813904 L347.97106776714327,84.7922685813904 C347.97106776714327,84.89226858139041 347.8910677671432,84.97226858139041 347.79106776714326,84.97226858139041 L345.51106776714323,84.97226858139041 C345.4110677671432,84.97226858139041 345.35106776714326,84.89226858139041 345.35106776714326,84.7922685813904 L345.35106776714326,71.95226858139041 C345.35106776714326,71.8522685813904 345.4110677671432,71.7722685813904 345.51106776714323,71.7722685813904 L347.87106776714324,71.7722685813904 C347.9510677671433,71.7722685813904 347.99106776714325,71.83226858139041 348.01106776714323,71.87226858139041 L350.81106776714324,78.33226858139041 L350.81106776714324,71.95226858139041 zM352.25106776714324,83.7722685813904 L352.25106776714324,72.97226858139041 C352.25106776714324,72.83226858139041 351.99106776714325,72.7922685813904 351.99106776714325,72.97226858139041 L351.99106776714325,83.25226858139041 L346.7710677671432,72.9322685813904 C346.7110677671433,72.8522685813904 346.55106776714325,72.8522685813904 346.55106776714325,72.97226858139041 L346.55106776714325,83.75226858139041 C346.55106776714325,83.93226858139042 346.79106776714326,83.93226858139042 346.79106776714326,83.75226858139041 L346.79106776714326,73.4922685813904 L351.99106776714325,83.7922685813904 C352.0710677671433,83.93226858139042 352.25106776714324,83.89226858139041 352.25106776714324,83.7722685813904 zM367.23606776714325,80.3522685813904 L367.23606776714325,79.73226858139041 C367.23606776714325,79.6322685813904 367.31606776714324,79.55226858139041 367.41606776714326,79.55226858139041 L369.6960677671433,79.55226858139041 C369.79606776714326,79.55226858139041 369.87606776714324,79.6322685813904 369.87606776714324,79.73226858139041 L369.87606776714324,80.9922685813904 C369.87606776714324,83.93226858139042 368.29606776714326,85.17226858139041 365.31606776714324,85.17226858139041 C362.5360677671432,85.17226858139041 360.7160677671433,84.0722685813904 360.7160677671433,80.9922685813904 L360.7160677671433,75.73226858139041 C360.7160677671433,72.7722685813904 362.3360677671433,71.59226858139041 365.31606776714324,71.59226858139041 C368.13606776714323,71.59226858139041 369.87606776714324,72.67226858139041 369.87606776714324,75.73226858139041 L369.87606776714324,76.15226858139042 C369.87606776714324,76.25226858139041 369.79606776714326,76.33226858139041 369.6960677671433,76.33226858139041 L367.3960677671432,76.33226858139041 C367.29606776714326,76.33226858139041 367.2160677671433,76.25226858139041 367.2160677671433,76.15226858139042 L367.2160677671433,75.83226858139041 C367.2160677671433,74.73226858139041 366.3960677671432,74.2722685813904 365.41606776714326,74.2722685813904 L365.17606776714325,74.2722685813904 C364.5160677671432,74.2722685813904 364.0760677671433,74.45226858139041 363.7760677671432,74.8522685813904 C363.49606776714324,75.23226858139041 363.3960677671432,75.73226858139041 363.3960677671432,76.39226858139041 L363.3960677671432,80.3522685813904 C363.3960677671432,82.09226858139041 364.37606776714324,82.47226858139041 365.17606776714325,82.47226858139041 L365.41606776714326,82.47226858139041 C366.67606776714325,82.47226858139041 367.1960677671433,81.6322685813904 367.23606776714325,80.3522685813904 zM365.2760677671432,72.83226858139041 C363.13606776714323,72.83226858139041 361.8960677671432,73.59226858139041 361.8960677671432,76.03226858139041 L361.8960677671432,80.8522685813904 C361.8960677671432,83.0722685813904 363.0360677671432,83.89226858139041 365.2760677671432,83.89226858139041 C367.37606776714324,83.89226858139041 368.63606776714323,83.1322685813904 368.63606776714323,80.83226858139041 C368.63606776714323,80.67226858139041 368.3960677671432,80.67226858139041 368.3960677671432,80.83226858139041 C368.3960677671432,82.8522685813904 367.29606776714326,83.67226858139041 365.2760677671432,83.67226858139041 C363.31606776714324,83.67226858139041 362.11606776714325,82.9922685813904 362.11606776714325,80.8522685813904 L362.11606776714325,76.03226858139041 C362.11606776714325,73.95226858139041 363.09606776714327,73.05226858139041 365.2760677671432,73.05226858139041 C368.11606776714325,73.05226858139041 368.2160677671433,74.8522685813904 368.2160677671433,75.05226858139041 C368.2160677671433,75.23226858139041 368.49606776714324,75.25226858139041 368.49606776714324,75.05226858139041 C368.49606776714324,73.39226858139041 366.81606776714324,72.83226858139041 365.2760677671432,72.83226858139041 zM378.04106776714326,85.15226858139042 C377.10106776714326,85.15226858139042 376.30106776714325,84.3522685813904 376.30106776714325,83.37226858139041 S377.10106776714326,81.6322685813904 378.04106776714326,81.6322685813904 C379.0210677671432,81.6322685813904 379.8410677671433,82.39226858139041 379.8410677671433,83.37226858139041 S379.0210677671432,85.15226858139042 378.04106776714326,85.15226858139042 zM378.06106776714324,83.97226858139041 C378.36106776714325,83.97226858139041 378.60106776714326,83.75226858139041 378.60106776714326,83.45226858139041 S378.36106776714325,82.93226858139042 378.06106776714324,82.93226858139042 S377.54106776714326,83.15226858139042 377.54106776714326,83.45226858139041 S377.76106776714323,83.97226858139041 378.06106776714324,83.97226858139041 zM378.06106776714324,83.17226858139041 C378.22106776714327,83.17226858139041 378.3410677671433,83.2922685813904 378.3410677671433,83.45226858139041 C378.3410677671433,83.6322685813904 378.22106776714327,83.75226858139041 378.06106776714324,83.75226858139041 S377.76106776714323,83.6322685813904 377.76106776714323,83.45226858139041 C377.76106776714323,83.2922685813904 377.9010677671432,83.17226858139041 378.06106776714324,83.17226858139041 z" fill="#111111" id="xe_01ke41" oldFill="#111111"></path></g></g></g></g><g id="borderG" clip-path="url(#bound_0)" display="none"><rect id="border" x="235.80000000000004" y="71.30000000000001" width="483.3999999999999" height="483.4" aWidth="5.83" aHeight="5.83" fill="none" stroke-width="1" stroke="#000" pointer-events="none"></rect></g></svg>