<svg id="svgcontent" width="955" height="626" x="0" y="0" overflow="visible" xmlns="http://www.w3.org/2000/svg" xmlns:se="http://imprintnext.com" xmlns:xlink="http://www.w3.org/1999/xlink" viewBox="0 0 955 626"><!-- Made with luv in USA by ImprintNext - https://imprintnext.com--><defs><clipPath id="bound_0" xe_id="bound_0"><rect id="xe_5zlejh" x="235.80000000000004" y="71.30000000000001" pointer-events="all" width="483.3999999999999" height="483.4"></rect></clipPath></defs><g id="bounds" display="none"><path d="M235.80000000000004 71.30000000000001 L719.1999999999999 71.30000000000001 L719.1999999999999 554.7 L235.80000000000004 554.7  Z" x="235.80000000000004" y="71.30000000000001" width="483.3999999999999" height="483.4" aWidth="5.83" aHeight="5.83" fill="none" stroke="#006400" isBleed="0" safeVal="0" cropVal="0" stroke-miterlimit="null" stroke-width="1" pointer-events="all" id="bound_0" xe_id="bound_0"></path></g><g class="layer" id="Layer_0" xe_id="Layer_0" style="pointer-events:all" clip-path="url(#bound_0)"><title>Layer_0</title><g id="background" type="bg_area_0" pointer-events="none" style="color-interpolation-filters:sRGB;pointer-events: none;"></g><g id="xe_w0wz7h" type="image" pointer-events="bounding-box" xe-props="&amp;#35;&amp;#103;&amp;#76;&amp;#73;&amp;#65;&amp;#101;&amp;#122;&amp;#127;&amp;#26;&amp;#89;&amp;#92;&amp;#97;&amp;#63;&amp;#32;&amp;#26;&amp;#28;&amp;#19;&amp;#111;&amp;#58;&amp;#47;&amp;#93;&amp;#83;&amp;#69;&amp;#84;&amp;#49;&amp;#49;&amp;#84;&amp;#85;&amp;#19;&amp;#58;&amp;#122;&amp;#103;&amp;#20;&amp;#18;&amp;#88;&amp;#115;&amp;#12;&amp;#32;&amp;#85;&amp;#64;&amp;#93;&amp;#97;&amp;#44;&amp;#32;&amp;#113;&amp;#93;&amp;#86;&amp;#34;&amp;#98;&amp;#35;&amp;#89;&amp;#92;&amp;#66;&amp;#101;&amp;#116;&amp;#103;&amp;#91;&amp;#95;&amp;#95;&amp;#116;&amp;#61;&amp;#43;&amp;#76;&amp;#100;&amp;#72;&amp;#112;&amp;#61;&amp;#103;&amp;#2;&amp;#18;&amp;#88;&amp;#109;&amp;#57;&amp;#34;&amp;#93;&amp;#31;&amp;#66;&amp;#118;&amp;#63;&amp;#110;&amp;#64;&amp;#93;&amp;#93;&amp;#34;&amp;#116;&amp;#103;&amp;#81;&amp;#93;&amp;#86;&amp;#69;&amp;#32;&amp;#49;&amp;#93;&amp;#94;&amp;#66;&amp;#105;&amp;#55;&amp;#43;&amp;#26;&amp;#10;&amp;#19;&amp;#115;&amp;#46;&amp;#34;&amp;#26;&amp;#28;&amp;#19;&amp;#111;&amp;#54;&amp;#32;&amp;#123;&amp;#95;&amp;#93;&amp;#111;&amp;#42;&amp;#3;&amp;#81;&amp;#92;&amp;#93;&amp;#34;&amp;#98;&amp;#103;&amp;#27;&amp;#118;&amp;#119;&amp;#48;&amp;#104;&amp;#117;&amp;#8;&amp;#18;&amp;#29;&amp;#34;&amp;#49;&amp;#40;&amp;#95;&amp;#100;&amp;#72;&amp;#112;&amp;#61;&amp;#103;&amp;#2;&amp;#18;&amp;#66;&amp;#118;&amp;#63;&amp;#103;&amp;#20;&amp;#18;&amp;#88;&amp;#109;&amp;#63;&amp;#22;&amp;#93;&amp;#92;&amp;#84;&amp;#99;&amp;#44;&amp;#44;&amp;#87;&amp;#94;&amp;#101;&amp;#121;&amp;#40;&amp;#32;&amp;#26;&amp;#10;&amp;#19;&amp;#117;&amp;#40;&amp;#41;&amp;#87;&amp;#81;&amp;#85;&amp;#34;&amp;#116;&amp;#103;&amp;#84;&amp;#95;&amp;#82;&amp;#107;&amp;#122;&amp;#127;&amp;#67;&amp;#18;&amp;#82;&amp;#111;&amp;#52;&amp;#42;&amp;#74;&amp;#117;&amp;#85;&amp;#105;&amp;#44;&amp;#103;&amp;#2;&amp;#86;&amp;#80;&amp;#108;&amp;#43;&amp;#32;&amp;#20;&amp;#18;&amp;#85;&amp;#101;&amp;#52;&amp;#32;&amp;#76;&amp;#85;&amp;#19;&amp;#58;&amp;#62;&amp;#36;&amp;#84;&amp;#67;&amp;#84;&amp;#44;&amp;#122;&amp;#40;&amp;#87;&amp;#70;&amp;#84;&amp;#34;&amp;#98;&amp;#35;&amp;#89;&amp;#92;&amp;#66;&amp;#101;&amp;#116;&amp;#103;&amp;#74;&amp;#95;&amp;#69;&amp;#97;&amp;#44;&amp;#32;&amp;#26;&amp;#10;&amp;#87;&amp;#97;&amp;#52;&amp;#54;&amp;#93;&amp;#28;&amp;#19;&amp;#114;&amp;#61;&amp;#54;&amp;#81;&amp;#74;&amp;#84;&amp;#34;&amp;#98;&amp;#35;&amp;#89;&amp;#92;&amp;#66;&amp;#101;&amp;#116;&amp;#103;&amp;#93;&amp;#84;&amp;#88;&amp;#116;&amp;#122;&amp;#127;&amp;#94;&amp;#81;&amp;#93;&amp;#115;&amp;#61;&amp;#56;&amp;#20;&amp;#18;&amp;#82;&amp;#111;&amp;#52;&amp;#42;&amp;#74;&amp;#67;&amp;#19;&amp;#58;&amp;#3;&amp;#103;&amp;#27;&amp;#1;&amp;#0;&amp;#49;&amp;#105;&amp;#116;&amp;#9;&amp;#18;&amp;#108;&amp;#44;&amp;#122;&amp;#44;&amp;#85;&amp;#81;&amp;#86;&amp;#101;&amp;#15;&amp;#36;&amp;#74;&amp;#94;&amp;#88;&amp;#110;&amp;#63;&amp;#103;&amp;#2;&amp;#86;&amp;#80;&amp;#108;&amp;#43;&amp;#32;&amp;#20;&amp;#18;&amp;#68;&amp;#112;&amp;#52;&amp;#42;&amp;#89;&amp;#84;&amp;#84;&amp;#100;&amp;#17;&amp;#40;&amp;#95;&amp;#18;&amp;#11;&amp;#34;&amp;#48;&amp;#49;&amp;#76;&amp;#64;&amp;#66;&amp;#58;&amp;#119;&amp;#106;&amp;#81;&amp;#93;&amp;#65;&amp;#114;&amp;#49;&amp;#43;&amp;#76;&amp;#94;&amp;#84;&amp;#120;&amp;#44;&amp;#107;&amp;#81;&amp;#95;&amp;#30;&amp;#120;&amp;#61;&amp;#49;&amp;#87;&amp;#95;&amp;#93;&amp;#47;&amp;#57;&amp;#54;&amp;#75;&amp;#85;&amp;#69;&amp;#115;&amp;#119;&amp;#39;&amp;#74;&amp;#95;&amp;#70;&amp;#115;&amp;#61;&amp;#55;&amp;#103;&amp;#89;&amp;#92;&amp;#97;&amp;#63;&amp;#32;&amp;#75;&amp;#31;&amp;#3;&amp;#48;&amp;#106;&amp;#119;&amp;#9;&amp;#1;&amp;#1;&amp;#49;&amp;#105;&amp;#117;&amp;#10;&amp;#0;&amp;#4;&amp;#55;&amp;#109;&amp;#112;&amp;#12;&amp;#9;&amp;#31;&amp;#115;&amp;#46;&amp;#34;&amp;#26;&amp;#77;"><g id="xe_yva6r2"><g id="SvgjsG1465" transform="matrix(1.40523 0 0 1.40523 0 -36.536)" fill="#111111"><rect y="62.57148838043213" height="1" width="1" opacity="0" fill="#111111" id="xe_8ysxc9" x="210.8013960123062" oldFill="#111111"></rect><rect y="375.57148838043213" width="258" height="5" fill="#111111" id="xe_u64n1s" x="210.8013960123062" oldFill="#111111"></rect></g><g id="SvgjsG1466" transform="matrix(2.68735 0 0 2.68735 45.7842 -4.26668)" fill="#111111"><path xmlns="http://www.w3.org/2000/svg" d="M139.72933393716812,58.2190146446228 C142.22933393716812,58.2190146446228 144.32933393716812,56.1190146446228 144.32933393716812,53.6190146446228 S142.22933393716812,49.0190146446228 139.72933393716812,49.0190146446228 C137.22933393716812,49.0190146446228 135.12933393716813,51.1190146446228 135.12933393716813,53.6190146446228 S137.22933393716812,58.2190146446228 139.72933393716812,58.2190146446228 zM137.22933393716812,90.7190146446228 C137.22933393716812,91.4190146446228 137.82933393716812,92.0190146446228 138.52933393716813,92.0190146446228 C139.22933393716812,92.0190146446228 139.82933393716812,91.4190146446228 139.82933393716812,90.7190146446228 S139.22933393716812,89.4190146446228 138.52933393716813,89.4190146446228 C137.82933393716812,89.4190146446228 137.22933393716812,90.0190146446228 137.22933393716812,90.7190146446228 zM146.4293339371681,64.0190146446228 C147.52933393716813,64.0190146446228 148.32933393716812,63.11901464462281 148.32933393716812,62.11901464462281 C148.32933393716812,61.0190146446228 147.4293339371681,60.2190146446228 146.4293339371681,60.2190146446228 C145.32933393716812,60.2190146446228 144.52933393716813,61.11901464462281 144.52933393716813,62.11901464462281 C144.52933393716813,63.11901464462281 145.32933393716812,64.0190146446228 146.4293339371681,64.0190146446228 zM131.32933393716812,81.3190146446228 C133.82933393716812,81.3190146446228 135.9293339371681,79.2190146446228 135.9293339371681,76.7190146446228 C135.9293339371681,74.2190146446228 133.82933393716812,72.11901464462281 131.32933393716812,72.11901464462281 S126.72933393716812,74.2190146446228 126.72933393716812,76.7190146446228 C126.82933393716812,79.2190146446228 128.82933393716812,81.3190146446228 131.32933393716812,81.3190146446228 zM124.72933393716812,70.5190146446228 C125.82933393716812,70.5190146446228 126.62933393716813,69.61901464462281 126.62933393716813,68.61901464462281 C126.62933393716813,67.5190146446228 125.72933393716812,66.7190146446228 124.72933393716812,66.7190146446228 C123.62933393716813,66.7190146446228 122.82933393716812,67.61901464462281 122.82933393716812,68.61901464462281 C122.82933393716812,69.7190146446228 123.62933393716813,70.5190146446228 124.72933393716812,70.5190146446228 zM124.02933393716812,74.7190146446228 C124.02933393716812,74.0190146446228 123.42933393716812,73.4190146446228 122.72933393716812,73.4190146446228 C122.02933393716812,73.4190146446228 121.42933393716812,74.0190146446228 121.42933393716812,74.7190146446228 S122.02933393716812,76.0190146446228 122.72933393716812,76.0190146446228 C123.42933393716812,76.0190146446228 124.02933393716812,75.4190146446228 124.02933393716812,74.7190146446228 zM130.12933393716813,63.919014644622806 C131.9293339371681,63.919014644622806 133.32933393716812,62.5190146446228 133.32933393716812,60.7190146446228 S131.9293339371681,57.5190146446228 130.12933393716813,57.5190146446228 C128.32933393716812,57.5190146446228 126.92933393716812,58.919014644622806 126.92933393716812,60.7190146446228 S128.32933393716812,63.919014644622806 130.12933393716813,63.919014644622806 zM169.02933393716813,46.319014644622804 C169.72933393716812,46.319014644622804 170.32933393716812,45.7190146446228 170.32933393716812,45.0190146446228 C170.32933393716812,44.319014644622804 169.72933393716812,43.7190146446228 169.02933393716813,43.7190146446228 C168.32933393716812,43.7190146446228 167.72933393716812,44.319014644622804 167.72933393716812,45.0190146446228 C167.72933393716812,45.7190146446228 168.32933393716812,46.319014644622804 169.02933393716813,46.319014644622804 zM134.02933393716813,90.2190146446228 C134.02933393716813,87.11901464462281 131.52933393716813,84.61901464462281 128.4293339371681,84.61901464462281 C125.32933393716812,84.61901464462281 122.82933393716812,87.11901464462281 122.82933393716812,90.2190146446228 S125.32933393716812,95.8190146446228 128.4293339371681,95.8190146446228 C131.52933393716813,95.8190146446228 134.02933393716813,93.3190146446228 134.02933393716813,90.2190146446228 zM190.12933393716813,66.61901464462281 C192.62933393716813,66.61901464462281 194.72933393716812,64.5190146446228 194.72933393716812,62.0190146446228 S192.62933393716813,57.419014644622806 190.12933393716813,57.419014644622806 S185.52933393716813,59.5190146446228 185.52933393716813,62.0190146446228 S187.52933393716813,66.61901464462281 190.12933393716813,66.61901464462281 zM179.82933393716812,98.2190146446228 C179.82933393716812,100.0190146446228 181.22933393716812,101.4190146446228 183.02933393716813,101.4190146446228 C184.82933393716812,101.4190146446228 186.22933393716812,100.0190146446228 186.22933393716812,98.2190146446228 S184.82933393716812,95.0190146446228 183.02933393716813,95.0190146446228 C181.22933393716812,95.0190146446228 179.82933393716812,96.4190146446228 179.82933393716812,98.2190146446228 zM183.02933393716813,55.6190146446228 C184.82933393716812,55.6190146446228 186.22933393716812,54.2190146446228 186.22933393716812,52.419014644622806 C186.22933393716812,50.6190146446228 184.82933393716812,49.2190146446228 183.02933393716813,49.2190146446228 C181.22933393716812,49.2190146446228 179.82933393716812,50.6190146446228 179.82933393716812,52.419014644622806 C179.82933393716812,54.2190146446228 181.22933393716812,55.6190146446228 183.02933393716813,55.6190146446228 zM175.9293339371681,63.919014644622806 C177.72933393716812,63.919014644622806 179.12933393716813,62.5190146446228 179.12933393716813,60.7190146446228 S177.72933393716812,57.5190146446228 175.9293339371681,57.5190146446228 C174.12933393716813,57.5190146446228 172.72933393716812,58.919014644622806 172.72933393716812,60.7190146446228 S174.12933393716813,63.919014644622806 175.9293339371681,63.919014644622806 zM187.4293339371681,75.2190146446228 C187.4293339371681,78.3190146446228 189.9293339371681,80.8190146446228 193.02933393716813,80.8190146446228 C196.12933393716813,80.8190146446228 198.62933393716813,78.3190146446228 198.62933393716813,75.2190146446228 S196.12933393716813,69.61901464462281 193.02933393716813,69.61901464462281 C189.9293339371681,69.61901464462281 187.4293339371681,72.11901464462281 187.4293339371681,75.2190146446228 zM184.22933393716812,74.7190146446228 C184.22933393716812,74.0190146446228 183.62933393716813,73.4190146446228 182.9293339371681,73.4190146446228 C182.22933393716812,73.4190146446228 181.62933393716813,74.0190146446228 181.62933393716813,74.7190146446228 S182.22933393716812,76.0190146446228 182.9293339371681,76.0190146446228 C183.62933393716813,76.0190146446228 184.22933393716812,75.4190146446228 184.22933393716812,74.7190146446228 zM175.02933393716813,48.819014644622804 C176.12933393716813,48.819014644622804 176.9293339371681,47.919014644622806 176.9293339371681,46.919014644622806 S176.02933393716813,45.0190146446228 175.02933393716813,45.0190146446228 C173.9293339371681,45.0190146446228 173.12933393716813,45.919014644622806 173.12933393716813,46.919014644622806 S174.02933393716813,48.819014644622804 175.02933393716813,48.819014644622804 zM181.02933393716813,70.5190146446228 C182.12933393716813,70.5190146446228 182.9293339371681,69.61901464462281 182.9293339371681,68.61901464462281 C182.9293339371681,67.5190146446228 182.02933393716813,66.7190146446228 181.02933393716813,66.7190146446228 S179.12933393716813,67.61901464462281 179.12933393716813,68.61901464462281 C179.12933393716813,69.7190146446228 180.02933393716813,70.5190146446228 181.02933393716813,70.5190146446228 zM141.62933393716813,67.2190146446228 C141.62933393716813,65.4190146446228 140.22933393716812,64.0190146446228 138.4293339371681,64.0190146446228 C136.62933393716813,64.0190146446228 135.22933393716812,65.4190146446228 135.22933393716812,67.2190146446228 S136.62933393716813,70.4190146446228 138.4293339371681,70.4190146446228 C140.22933393716812,70.4190146446228 141.62933393716813,69.0190146446228 141.62933393716813,67.2190146446228 zM175.02933393716813,101.4190146446228 C173.9293339371681,101.4190146446228 173.12933393716813,102.3190146446228 173.12933393716813,103.3190146446228 C173.12933393716813,104.4190146446228 174.02933393716813,105.2190146446228 175.02933393716813,105.2190146446228 C176.12933393716813,105.2190146446228 176.9293339371681,104.3190146446228 176.9293339371681,103.3190146446228 C176.9293339371681,102.3190146446228 176.12933393716813,101.4190146446228 175.02933393716813,101.4190146446228 zM168.52933393716813,109.11901464462281 C165.4293339371681,109.11901464462281 162.9293339371681,111.61901464462281 162.9293339371681,114.7190146446228 S165.4293339371681,120.3190146446228 168.52933393716813,120.3190146446228 C171.62933393716813,120.3190146446228 174.12933393716813,117.8190146446228 174.12933393716813,114.7190146446228 S171.62933393716813,109.11901464462281 168.52933393716813,109.11901464462281 zM181.72933393716812,107.2190146446228 C179.22933393716812,107.2190146446228 177.12933393716813,109.3190146446228 177.12933393716813,111.8190146446228 S179.22933393716812,116.4190146446228 181.72933393716812,116.4190146446228 C184.22933393716812,116.4190146446228 186.32933393716812,114.3190146446228 186.32933393716812,111.8190146446228 S184.22933393716812,107.2190146446228 181.72933393716812,107.2190146446228 zM167.72933393716812,105.2190146446228 C167.72933393716812,105.9190146446228 168.32933393716812,106.5190146446228 169.02933393716813,106.5190146446228 C169.72933393716812,106.5190146446228 170.32933393716812,105.9190146446228 170.32933393716812,105.2190146446228 C170.32933393716812,104.5190146446228 169.72933393716812,103.9190146446228 169.02933393716813,103.9190146446228 C168.32933393716812,104.0190146446228 167.72933393716812,104.5190146446228 167.72933393716812,105.2190146446228 zM198.72933393716812,89.4190146446228 C198.02933393716813,89.4190146446228 197.4293339371681,90.0190146446228 197.4293339371681,90.7190146446228 S198.02933393716813,92.0190146446228 198.72933393716812,92.0190146446228 C199.4293339371681,92.0190146446228 200.02933393716813,91.4190146446228 200.02933393716813,90.7190146446228 S199.32933393716812,89.4190146446228 198.72933393716812,89.4190146446228 zM196.72933393716812,94.9190146446228 C195.62933393716813,94.9190146446228 194.82933393716812,95.8190146446228 194.82933393716812,96.8190146446228 C194.82933393716812,97.9190146446228 195.72933393716812,98.7190146446228 196.72933393716812,98.7190146446228 C197.82933393716812,98.7190146446228 198.62933393716813,97.8190146446228 198.62933393716813,96.8190146446228 C198.62933393716813,95.7190146446228 197.82933393716812,94.9190146446228 196.72933393716812,94.9190146446228 zM166.4293339371681,58.2190146446228 C168.9293339371681,58.2190146446228 171.02933393716813,56.1190146446228 171.02933393716813,53.6190146446228 S168.9293339371681,49.0190146446228 166.4293339371681,49.0190146446228 S161.82933393716812,51.1190146446228 161.82933393716812,53.6190146446228 S163.9293339371681,58.2190146446228 166.4293339371681,58.2190146446228 zM190.12933393716813,84.11901464462281 C187.62933393716813,84.11901464462281 185.52933393716813,86.2190146446228 185.52933393716813,88.7190146446228 C185.52933393716813,91.2190146446228 187.62933393716813,93.3190146446228 190.12933393716813,93.3190146446228 S194.72933393716812,91.2190146446228 194.72933393716812,88.7190146446228 C194.62933393716813,86.2190146446228 192.62933393716813,84.11901464462281 190.12933393716813,84.11901464462281 zM131.32933393716812,98.8190146446228 C128.82933393716812,98.8190146446228 126.72933393716812,100.9190146446228 126.72933393716812,103.4190146446228 S128.82933393716812,108.0190146446228 131.32933393716812,108.0190146446228 S135.9293339371681,105.9190146446228 135.9293339371681,103.4190146446228 S133.9293339371681,98.8190146446228 131.32933393716812,98.8190146446228 zM191.32933393716812,101.5190146446228 C189.52933393716813,101.5190146446228 188.12933393716813,102.9190146446228 188.12933393716813,104.7190146446228 S189.52933393716813,107.9190146446228 191.32933393716812,107.9190146446228 C193.12933393716813,107.9190146446228 194.52933393716813,106.5190146446228 194.52933393716813,104.7190146446228 S193.12933393716813,101.5190146446228 191.32933393716812,101.5190146446228 zM140.4293339371681,94.9190146446228 C139.32933393716812,94.9190146446228 138.52933393716813,95.8190146446228 138.52933393716813,96.8190146446228 C138.52933393716813,97.9190146446228 139.4293339371681,98.7190146446228 140.4293339371681,98.7190146446228 S142.32933393716812,97.8190146446228 142.32933393716812,96.8190146446228 C142.32933393716812,95.7190146446228 141.4293339371681,94.9190146446228 140.4293339371681,94.9190146446228 zM145.52933393716813,101.5190146446228 C143.72933393716812,101.5190146446228 142.32933393716812,102.9190146446228 142.32933393716812,104.7190146446228 S143.72933393716812,107.9190146446228 145.52933393716813,107.9190146446228 C147.32933393716812,107.9190146446228 148.72933393716812,106.5190146446228 148.72933393716812,104.7190146446228 S147.32933393716812,101.5190146446228 145.52933393716813,101.5190146446228 zM146.4293339371681,116.61901464462281 C145.32933393716812,116.61901464462281 144.52933393716813,117.5190146446228 144.52933393716813,118.5190146446228 S145.4293339371681,120.41901464462279 146.4293339371681,120.41901464462279 C147.52933393716813,120.41901464462279 148.32933393716812,119.5190146446228 148.32933393716812,118.5190146446228 S147.4293339371681,116.61901464462281 146.4293339371681,116.61901464462281 zM138.4293339371681,109.8190146446228 C136.62933393716813,109.8190146446228 135.22933393716812,111.2190146446228 135.22933393716812,113.0190146446228 C135.22933393716812,114.8190146446228 136.62933393716813,116.2190146446228 138.4293339371681,116.2190146446228 C140.22933393716812,116.2190146446228 141.62933393716813,114.8190146446228 141.62933393716813,113.0190146446228 C141.62933393716813,111.2190146446228 140.22933393716812,109.8190146446228 138.4293339371681,109.8190146446228 zM151.22933393716812,60.2190146446228 C151.22933393716812,60.919014644622806 151.82933393716812,61.5190146446228 152.52933393716813,61.5190146446228 C153.22933393716812,61.5190146446228 153.82933393716812,60.919014644622806 153.82933393716812,60.2190146446228 C153.82933393716812,59.5190146446228 153.22933393716812,58.919014644622806 152.52933393716813,58.919014644622806 C151.72933393716812,58.919014644622806 151.22933393716812,59.5190146446228 151.22933393716812,60.2190146446228 zM158.52933393716813,50.6190146446228 C158.52933393716813,47.5190146446228 156.02933393716813,45.0190146446228 152.9293339371681,45.0190146446228 C149.82933393716812,45.0190146446228 147.32933393716812,47.5190146446228 147.32933393716812,50.6190146446228 S149.82933393716812,56.2190146446228 152.9293339371681,56.2190146446228 C156.02933393716813,56.3190146446228 158.52933393716813,53.819014644622804 158.52933393716813,50.6190146446228 zM152.4293339371681,119.11901464462281 C151.72933393716812,119.11901464462281 151.12933393716813,119.7190146446228 151.12933393716813,120.41901464462279 C151.12933393716813,121.11901464462281 151.72933393716812,121.7190146446228 152.4293339371681,121.7190146446228 C153.12933393716813,121.7190146446228 153.72933393716812,121.11901464462281 153.72933393716812,120.41901464462279 C153.72933393716812,119.7190146446228 153.12933393716813,119.11901464462281 152.4293339371681,119.11901464462281 zM155.02933393716813,107.2190146446228 C152.52933393716813,107.2190146446228 150.4293339371681,109.3190146446228 150.4293339371681,111.8190146446228 S152.52933393716813,116.4190146446228 155.02933393716813,116.4190146446228 S159.62933393716813,114.3190146446228 159.62933393716813,111.8190146446228 S157.52933393716813,107.2190146446228 155.02933393716813,107.2190146446228 z" fill="#111111" id="xe_257ju7" oldFill="#111111"></path></g><g id="SvgjsG1467" transform="matrix(4.18741 0 0 4.18741 0 217.554)" fill="#111111"><path d="M70.74179476499557,55.31805545806885 C70.74179476499557,52.158055458068844 73.26179476499557,49.63805545806885 76.42179476499558,49.63805545806885 C78.26179476499557,49.63805545806885 79.90179476499557,50.518055458068844 80.94179476499558,51.87805545806884 L80.94179476499558,32.398055458068846 L82.10179476499557,32.398055458068846 L82.10179476499557,60.99805545806885 L80.94179476499558,60.99805545806885 L80.94179476499558,58.71805545806885 C79.90179476499557,60.078055458068846 78.26179476499557,60.99805545806885 76.42179476499558,60.99805545806885 C73.26179476499557,60.99805545806885 70.74179476499557,58.438055458068845 70.74179476499557,55.31805545806885 zM71.90179476499557,55.31805545806885 C71.90179476499557,57.798055458068845 73.94179476499558,59.798055458068845 76.42179476499558,59.798055458068845 S80.94179476499558,57.798055458068845 80.94179476499558,55.31805545806885 C80.94179476499558,52.798055458068845 78.90179476499557,50.798055458068845 76.42179476499558,50.798055458068845 S71.90179476499557,52.798055458068845 71.90179476499557,55.31805545806885 zM86.66179476499558,58.87805545806886 C88.42179476499558,60.23805545806886 90.98179476499557,60.11805545806885 92.62179476499557,58.478055458068845 L93.42179476499558,59.31805545806884 C91.22179476499558,61.51805545806886 87.62179476499557,61.51805545806886 85.38179476499558,59.31805545806884 C83.18179476499557,57.118055458068845 83.18179476499557,53.51805545806885 85.38179476499558,51.27805545806885 C87.46179476499557,49.19805545806885 90.78179476499557,49.078055458068846 92.98179476499557,50.87805545806884 L93.02179476499558,50.87805545806884 C93.42179476499558,51.27805545806885 93.42179476499558,51.27805545806885 93.86179476499558,51.67805545806885 L86.66179476499558,58.87805545806886 zM86.22179476499558,52.11805545806885 C84.62179476499557,53.71805545806885 84.46179476499557,56.27805545806885 85.82179476499557,58.03805545806885 L92.18179476499557,51.71805545806885 C90.42179476499558,50.35805545806885 87.86179476499558,50.47805545806885 86.22179476499558,52.11805545806885 zM95.46179476499557,60.99805545806885 L95.46179476499557,32.398055458068846 L96.62179476499557,32.398055458068846 L96.62179476499557,60.99805545806885 L95.46179476499557,60.99805545806885 zM112.22179476499556,61.55805545806885 C109.86179476499558,61.55805545806885 107.62179476499557,60.438055458068845 106.22179476499556,58.51805545806885 L107.14179476499558,57.83805545806885 C108.34179476499557,59.438055458068845 110.22179476499556,60.39805545806885 112.22179476499556,60.39805545806885 C115.62179476499557,60.39805545806885 118.42179476499558,57.59805545806885 118.42179476499558,54.158055458068844 C118.42179476499558,50.59805545806885 115.70179476499558,47.99805545806885 113.06179476499557,45.438055458068845 C110.50179476499557,43.03805545806885 107.90179476499557,40.518055458068844 107.90179476499557,37.19805545806885 C107.90179476499557,34.23805545806885 110.34179476499557,31.798055458068845 113.30179476499558,31.798055458068845 C115.02179476499558,31.798055458068845 116.66179476499558,32.63805545806885 117.70179476499558,34.03805545806885 L116.74179476499557,34.71805545806885 C115.94179476499558,33.63805545806885 114.66179476499558,32.95805545806885 113.30179476499558,32.95805545806885 C110.98179476499558,32.95805545806885 109.06179476499557,34.87805545806886 109.06179476499557,37.19805545806885 C109.06179476499557,39.99805545806885 111.38179476499558,42.23805545806884 113.86179476499558,44.59805545806885 C116.66179476499558,47.31805545806885 119.58179476499558,50.11805545806885 119.58179476499558,54.158055458068844 C119.58179476499558,58.23805545806885 116.26179476499559,61.55805545806885 112.22179476499556,61.55805545806885 zM135.46179476499557,33.55805545806885 C128.22179476499556,33.55805545806885 122.38179476499558,39.438055458068845 122.38179476499558,46.67805545806885 S128.22179476499556,59.798055458068845 135.46179476499557,59.798055458068845 S148.62179476499557,53.91805545806885 148.62179476499557,46.67805545806885 S142.70179476499555,33.55805545806885 135.46179476499557,33.55805545806885 zM135.46179476499557,32.398055458068846 C143.38179476499556,32.398055458068846 149.7817947649956,38.798055458068845 149.7817947649956,46.67805545806885 S143.38179476499556,60.99805545806885 135.46179476499557,60.99805545806885 C127.58179476499558,60.99805545806885 121.18179476499557,54.55805545806885 121.18179476499557,46.67805545806885 S127.58179476499558,32.398055458068846 135.46179476499557,32.398055458068846 zM152.5417947649956,59.798055458068845 L157.26179476499556,59.798055458068845 L157.26179476499556,60.99805545806885 L151.38179476499556,60.99805545806885 L151.38179476499556,32.398055458068846 L152.5417947649956,32.398055458068846 L152.5417947649956,59.798055458068845 z" fill="#111111" id="xe_2kv4i2" oldFill="#111111"></path></g><g id="SvgjsG1468" transform="matrix(1.58202 0 0 1.58202 40.6747 412.502)" fill="#111111"><path d="M190.824726061821,62.49923984527588 L193.02472606182099,70.77923984527588 L195.28472606182098,62.49923984527588 C195.324726061821,62.43923984527588 195.364726061821,62.379239845275876 195.44472606182097,62.379239845275876 L197.72472606182097,62.379239845275876 C197.84472606182098,62.379239845275876 197.924726061821,62.479239845275885 197.88472606182097,62.599239845275875 L194.424726061821,75.45923984527587 C194.38472606182097,75.53923984527589 194.34472606182098,75.57923984527588 194.264726061821,75.57923984527588 L191.78472606182098,75.57923984527588 C191.72472606182097,75.57923984527588 191.66472606182097,75.53923984527589 191.644726061821,75.45923984527587 L188.18472606182098,62.599239845275875 C188.16472606182097,62.479239845275885 188.24472606182098,62.379239845275876 188.364726061821,62.379239845275876 L190.66472606182097,62.379239845275876 C190.74472606182098,62.379239845275876 190.78472606182098,62.43923984527588 190.824726061821,62.49923984527588 zM192.984726061821,74.19923984527588 L189.644726061821,63.53923984527587 C189.584726061821,63.379239845275876 189.364726061821,63.479239845275885 189.424726061821,63.599239845275875 L192.74472606182098,74.27923984527588 C192.824726061821,74.57923984527588 193.144726061821,74.59923984527587 193.24472606182098,74.27923984527588 L196.44472606182097,63.599239845275875 C196.484726061821,63.479239845275885 196.264726061821,63.39923984527587 196.22472606182097,63.53923984527587 L192.984726061821,74.19923984527588 zM204.56972606182097,75.57923984527588 C204.46972606182098,75.57923984527588 204.40972606182098,75.49923984527588 204.40972606182098,75.39923984527587 L204.40972606182098,62.55923984527588 C204.40972606182098,62.459239845275874 204.46972606182098,62.379239845275876 204.56972606182097,62.379239845275876 L211.36972606182098,62.379239845275876 C211.46972606182098,62.379239845275876 211.549726061821,62.459239845275874 211.549726061821,62.55923984527588 L211.549726061821,64.69923984527588 C211.549726061821,64.79923984527588 211.46972606182098,64.87923984527588 211.36972606182098,64.87923984527588 L207.049726061821,64.87923984527588 L207.049726061821,67.59923984527587 L210.40972606182098,67.59923984527587 C210.50972606182097,67.59923984527587 210.56972606182097,67.67923984527587 210.56972606182097,67.77923984527588 L210.56972606182097,69.95923984527587 C210.56972606182097,70.05923984527588 210.50972606182097,70.13923984527588 210.40972606182098,70.13923984527588 L207.049726061821,70.13923984527588 L207.049726061821,73.07923984527588 L211.36972606182098,73.07923984527588 C211.46972606182098,73.07923984527588 211.549726061821,73.15923984527588 211.549726061821,73.25923984527589 L211.549726061821,75.39923984527587 C211.549726061821,75.49923984527588 211.46972606182098,75.57923984527588 211.36972606182098,75.57923984527588 L204.56972606182097,75.57923984527588 zM205.56972606182097,63.63923984527588 L205.56972606182097,74.27923984527588 C205.56972606182097,74.39923984527587 205.64972606182099,74.43923984527588 205.729726061821,74.43923984527588 L210.329726061821,74.43923984527588 C210.50972606182097,74.43923984527588 210.46972606182098,74.19923984527588 210.329726061821,74.19923984527588 L205.829726061821,74.19923984527588 L205.829726061821,68.97923984527588 L209.50972606182097,68.97923984527588 C209.62972606182097,68.97923984527588 209.62972606182097,68.69923984527588 209.50972606182097,68.69923984527588 L205.829726061821,68.69923984527588 L205.829726061821,63.739239845275875 L210.329726061821,63.739239845275875 C210.46972606182098,63.739239845275875 210.50972606182097,63.479239845275885 210.329726061821,63.479239845275885 L205.729726061821,63.479239845275885 C205.64972606182099,63.479239845275885 205.56972606182097,63.53923984527587 205.56972606182097,63.63923984527588 zM224.13472606182097,62.55923984527588 C224.13472606182097,62.459239845275874 224.21472606182098,62.379239845275876 224.31472606182098,62.379239845275876 L226.614726061821,62.379239845275876 C226.71472606182098,62.379239845275876 226.794726061821,62.459239845275874 226.794726061821,62.55923984527588 L226.794726061821,75.39923984527587 C226.794726061821,75.49923984527588 226.71472606182098,75.57923984527588 226.614726061821,75.57923984527588 L224.394726061821,75.57923984527588 C224.31472606182098,75.57923984527588 224.234726061821,75.53923984527589 224.21472606182098,75.47923984527588 L221.294726061821,68.89923984527587 L221.294726061821,75.39923984527587 C221.294726061821,75.49923984527588 221.21472606182098,75.57923984527588 221.114726061821,75.57923984527588 L218.834726061821,75.57923984527588 C218.734726061821,75.57923984527588 218.674726061821,75.49923984527588 218.674726061821,75.39923984527587 L218.674726061821,62.55923984527588 C218.674726061821,62.459239845275874 218.734726061821,62.379239845275876 218.834726061821,62.379239845275876 L221.19472606182097,62.379239845275876 C221.27472606182099,62.379239845275876 221.31472606182098,62.43923984527588 221.334726061821,62.479239845275885 L224.13472606182097,68.93923984527588 L224.13472606182097,62.55923984527588 zM225.57472606182097,74.37923984527588 L225.57472606182097,63.57923984527588 C225.57472606182097,63.43923984527588 225.31472606182098,63.39923984527587 225.31472606182098,63.57923984527588 L225.31472606182098,73.85923984527588 L220.09472606182098,63.53923984527587 C220.03472606182098,63.459239845275874 219.87472606182098,63.459239845275874 219.87472606182098,63.57923984527588 L219.87472606182098,74.35923984527588 C219.87472606182098,74.53923984527589 220.114726061821,74.53923984527589 220.114726061821,74.35923984527588 L220.114726061821,64.09923984527587 L225.31472606182098,74.39923984527587 C225.394726061821,74.53923984527589 225.57472606182097,74.49923984527588 225.57472606182097,74.37923984527588 zM236.359726061821,64.87923984527588 L233.519726061821,64.87923984527588 C233.419726061821,64.87923984527588 233.33972606182098,64.79923984527588 233.33972606182098,64.69923984527588 L233.33972606182098,62.55923984527588 C233.33972606182098,62.459239845275874 233.419726061821,62.379239845275876 233.519726061821,62.379239845275876 L241.859726061821,62.379239845275876 C241.959726061821,62.379239845275876 242.039726061821,62.459239845275874 242.039726061821,62.55923984527588 L242.039726061821,64.69923984527588 C242.039726061821,64.79923984527588 241.959726061821,64.87923984527588 241.859726061821,64.87923984527588 L239.019726061821,64.87923984527588 L239.019726061821,75.39923984527587 C239.019726061821,75.49923984527588 238.93972606182098,75.57923984527588 238.83972606182098,75.57923984527588 L236.539726061821,75.57923984527588 C236.43972606182098,75.57923984527588 236.359726061821,75.49923984527588 236.359726061821,75.39923984527587 L236.359726061821,64.87923984527588 zM240.639726061821,63.479239845275885 L234.59972606182097,63.479239845275885 C234.459726061821,63.479239845275885 234.459726061821,63.739239845275875 234.59972606182097,63.739239845275875 L237.55972606182098,63.739239845275875 L237.55972606182098,74.33923984527588 C237.55972606182098,74.47923984527588 237.81972606182097,74.47923984527588 237.81972606182097,74.33923984527588 L237.81972606182097,63.739239845275875 L240.639726061821,63.739239845275875 C240.83972606182098,63.739239845275875 240.81972606182097,63.479239845275885 240.639726061821,63.479239845275885 zM254.94472606182097,70.95923984527587 L254.94472606182097,62.55923984527588 C254.94472606182097,62.459239845275874 255.02472606182099,62.379239845275876 255.12472606182098,62.379239845275876 L257.40472606182095,62.379239845275876 C257.504726061821,62.379239845275876 257.584726061821,62.459239845275874 257.584726061821,62.55923984527588 L257.584726061821,71.59923984527587 C257.584726061821,74.47923984527588 256.004726061821,75.77923984527588 253.02472606182099,75.77923984527588 C250.204726061821,75.77923984527588 248.44472606182097,74.65923984527588 248.44472606182097,71.59923984527587 L248.44472606182097,62.55923984527588 C248.44472606182097,62.459239845275874 248.52472606182099,62.379239845275876 248.62472606182098,62.379239845275876 L250.924726061821,62.379239845275876 C251.02472606182099,62.379239845275876 251.104726061821,62.459239845275874 251.104726061821,62.55923984527588 L251.104726061821,70.95923984527587 C251.104726061821,72.69923984527588 252.084726061821,73.07923984527588 252.90472606182098,73.07923984527588 L253.144726061821,73.07923984527588 C254.38472606182097,73.07923984527588 254.94472606182097,72.23923984527588 254.94472606182097,70.95923984527587 zM249.68472606182098,63.65923984527588 L249.68472606182098,71.43923984527588 C249.68472606182098,73.23923984527588 250.90472606182098,74.53923984527589 252.804726061821,74.53923984527589 L253.304726061821,74.53923984527589 C255.20472606182096,74.53923984527589 256.444726061821,73.17923984527587 256.444726061821,71.43923984527588 L256.444726061821,63.65923984527588 C256.444726061821,63.479239845275885 256.20472606182096,63.459239845275874 256.20472606182096,63.65923984527588 L256.20472606182096,71.43923984527588 C256.20472606182096,73.07923984527588 255.02472606182099,74.27923984527588 253.304726061821,74.27923984527588 L252.804726061821,74.27923984527588 C251.12472606182098,74.27923984527588 249.924726061821,73.19923984527588 249.924726061821,71.43923984527588 L249.924726061821,63.65923984527588 C249.924726061821,63.479239845275885 249.68472606182098,63.479239845275885 249.68472606182098,63.65923984527588 zM272.429726061821,70.35923984527588 C272.14972606182096,70.93923984527588 271.749726061821,71.37923984527588 271.189726061821,71.63923984527588 L272.869726061821,75.33923984527588 C272.929726061821,75.45923984527587 272.849726061821,75.57923984527588 272.729726061821,75.57923984527588 L270.26972606182096,75.57923984527588 C270.189726061821,75.57923984527588 270.14972606182096,75.53923984527589 270.129726061821,75.47923984527588 L268.569726061821,72.07923984527588 L267.549726061821,72.07923984527588 L267.549726061821,75.39923984527587 C267.549726061821,75.49923984527588 267.469726061821,75.57923984527588 267.369726061821,75.57923984527588 L265.069726061821,75.57923984527588 C264.989726061821,75.57923984527588 264.929726061821,75.49923984527588 264.929726061821,75.39923984527587 L264.929726061821,62.55923984527588 C264.929726061821,62.459239845275874 264.989726061821,62.379239845275876 265.069726061821,62.379239845275876 L269.229726061821,62.379239845275876 C271.44972606182097,62.379239845275876 272.789726061821,63.63923984527588 272.789726061821,65.97923984527588 L272.789726061821,68.49923984527588 C272.789726061821,69.19923984527588 272.669726061821,69.85923984527588 272.429726061821,70.35923984527588 zM270.169726061821,67.87923984527588 L270.169726061821,66.57923984527588 C270.169726061821,65.17923984527587 269.64972606182096,65.03923984527589 268.129726061821,65.03923984527589 L267.549726061821,65.03923984527589 L267.549726061821,69.45923984527587 L268.129726061821,69.45923984527587 C269.38972606182097,69.45923984527587 270.129726061821,69.43923984527588 270.169726061821,67.87923984527588 zM266.38972606182097,74.35923984527588 L266.38972606182097,70.93923984527588 L269.26972606182096,70.93923984527588 L270.94972606182097,74.39923984527587 C270.989726061821,74.49923984527588 271.229726061821,74.45923984527587 271.169726061821,74.27923984527588 L269.489726061821,70.87923984527588 C271.049726061821,70.65923984527588 271.589726061821,69.83923984527588 271.589726061821,68.35923984527588 L271.589726061821,65.85923984527588 C271.589726061821,63.65923984527588 269.589726061821,63.479239845275885 268.969726061821,63.479239845275885 L266.26972606182096,63.479239845275885 C266.229726061821,63.479239845275885 266.14972606182096,63.53923984527587 266.14972606182096,63.599239845275875 L266.14972606182096,74.35923984527588 C266.14972606182096,74.49923984527588 266.38972606182097,74.49923984527588 266.38972606182097,74.35923984527588 zM271.349726061821,65.85923984527588 L271.349726061821,68.35923984527588 C271.349726061821,70.39923984527587 270.049726061821,70.67923984527587 268.789726061821,70.67923984527587 L266.38972606182097,70.67923984527587 L266.38972606182097,63.739239845275875 L268.969726061821,63.739239845275875 C271.129726061821,63.739239845275875 271.349726061821,65.19923984527588 271.349726061821,65.85923984527588 zM280.234726061821,75.57923984527588 C280.13472606182097,75.57923984527588 280.07472606182097,75.49923984527588 280.07472606182097,75.39923984527587 L280.07472606182097,62.55923984527588 C280.07472606182097,62.459239845275874 280.13472606182097,62.379239845275876 280.234726061821,62.379239845275876 L287.034726061821,62.379239845275876 C287.13472606182097,62.379239845275876 287.214726061821,62.459239845275874 287.214726061821,62.55923984527588 L287.214726061821,64.69923984527588 C287.214726061821,64.79923984527588 287.13472606182097,64.87923984527588 287.034726061821,64.87923984527588 L282.714726061821,64.87923984527588 L282.714726061821,67.59923984527587 L286.07472606182097,67.59923984527587 C286.174726061821,67.59923984527587 286.234726061821,67.67923984527587 286.234726061821,67.77923984527588 L286.234726061821,69.95923984527587 C286.234726061821,70.05923984527588 286.174726061821,70.13923984527588 286.07472606182097,70.13923984527588 L282.714726061821,70.13923984527588 L282.714726061821,73.07923984527588 L287.034726061821,73.07923984527588 C287.13472606182097,73.07923984527588 287.214726061821,73.15923984527588 287.214726061821,73.25923984527589 L287.214726061821,75.39923984527587 C287.214726061821,75.49923984527588 287.13472606182097,75.57923984527588 287.034726061821,75.57923984527588 L280.234726061821,75.57923984527588 zM281.234726061821,63.63923984527588 L281.234726061821,74.27923984527588 C281.234726061821,74.39923984527587 281.314726061821,74.43923984527588 281.39472606182096,74.43923984527588 L285.994726061821,74.43923984527588 C286.174726061821,74.43923984527588 286.13472606182097,74.19923984527588 285.994726061821,74.19923984527588 L281.494726061821,74.19923984527588 L281.494726061821,68.97923984527588 L285.174726061821,68.97923984527588 C285.294726061821,68.97923984527588 285.294726061821,68.69923984527588 285.174726061821,68.69923984527588 L281.494726061821,68.69923984527588 L281.494726061821,63.739239845275875 L285.994726061821,63.739239845275875 C286.13472606182097,63.739239845275875 286.174726061821,63.479239845275885 285.994726061821,63.479239845275885 L281.39472606182096,63.479239845275885 C281.314726061821,63.479239845275885 281.234726061821,63.53923984527587 281.234726061821,63.63923984527588 zM298.839726061821,67.47923984527588 C300.359726061821,68.19923984527588 302.339726061821,69.33923984527588 302.339726061821,71.39923984527587 C302.339726061821,71.99923984527588 302.239726061821,73.15923984527588 301.57972606182096,74.13923984527588 C300.839726061821,75.23923984527588 299.679726061821,75.77923984527588 298.07972606182096,75.77923984527588 C296.379726061821,75.77923984527588 294.39972606182096,74.95923984527587 293.77972606182095,73.09923984527587 C293.75972606182097,73.03923984527589 293.77972606182095,72.97923984527588 293.839726061821,72.93923984527588 L295.679726061821,71.35923984527588 C295.75972606182097,71.29923984527588 295.879726061821,71.29923984527588 295.939726061821,71.39923984527587 C295.979726061821,71.49923984527588 296.059726061821,71.65923984527588 296.159726061821,71.85923984527588 C296.459726061821,72.47923984527588 297.179726061821,73.09923984527587 297.979726061821,73.09923984527587 C298.599726061821,73.09923984527587 299.439726061821,72.75923984527589 299.439726061821,71.79923984527588 C299.439726061821,70.87923984527588 298.179726061821,70.35923984527588 297.39972606182096,70.05923984527588 C296.499726061821,69.69923984527588 295.57972606182096,69.23923984527588 294.799726061821,68.55923984527588 C293.979726061821,67.79923984527588 293.57972606182096,66.95923984527587 293.57972606182096,65.95923984527587 C293.57972606182096,63.459239845275874 295.879726061821,62.19923984527588 298.059726061821,62.19923984527588 C299.77972606182095,62.19923984527588 301.059726061821,63.099239845275875 301.89972606182096,64.87923984527588 C301.939726061821,64.95923984527587 301.89972606182096,65.05923984527588 301.839726061821,65.09923984527587 L300.059726061821,66.33923984527588 C299.979726061821,66.37923984527588 299.939726061821,66.37923984527588 299.859726061821,66.27923984527588 C299.179726061821,65.29923984527588 298.57972606182096,64.83923984527588 297.77972606182095,64.83923984527588 C297.359726061821,64.83923984527588 296.379726061821,64.99923984527588 296.379726061821,65.73923984527588 C296.379726061821,66.63923984527588 298.039726061821,67.09923984527587 298.839726061821,67.47923984527588 zM295.19972606182097,72.99923984527588 C295.69972606182097,73.99923984527588 297.07972606182096,74.57923984527588 298.19972606182097,74.57923984527588 C299.659726061821,74.57923984527588 300.839726061821,73.57923984527588 300.999726061821,72.05923984527588 C301.19972606182097,70.19923984527588 299.739726061821,69.39923984527587 298.299726061821,68.67923984527587 L297.659726061821,68.39923984527587 C296.179726061821,67.73923984527588 295.099726061821,67.23923984527588 295.099726061821,65.85923984527588 C295.099726061821,64.33923984527588 296.499726061821,63.63923984527588 297.879726061821,63.63923984527588 C299.13972606182097,63.63923984527588 299.799726061821,64.37923984527588 300.13972606182097,64.83923984527588 C300.25972606182097,64.99923984527588 300.459726061821,64.85923984527588 300.339726061821,64.69923984527588 C299.999726061821,64.27923984527588 299.27972606182095,63.39923984527587 297.879726061821,63.39923984527587 C296.299726061821,63.39923984527587 294.859726061821,64.17923984527587 294.859726061821,65.85923984527588 C294.859726061821,67.35923984527588 296.059726061821,67.93923984527588 297.57972606182096,68.63923984527588 L298.19972606182097,68.93923984527588 C300.179726061821,69.87923984527588 300.89972606182096,70.75923984527589 300.739726061821,72.03923984527589 C300.439726061821,74.07923984527588 298.879726061821,74.33923984527588 298.19972606182097,74.33923984527588 C296.69972606182097,74.33923984527588 295.69972606182097,73.43923984527588 295.39972606182096,72.87923984527588 C295.299726061821,72.77923984527588 295.159726061821,72.87923984527588 295.19972606182097,72.99923984527588 zM320.469726061821,75.57923984527588 C320.369726061821,75.57923984527588 320.309726061821,75.49923984527588 320.309726061821,75.39923984527587 L320.309726061821,62.55923984527588 C320.309726061821,62.459239845275874 320.369726061821,62.379239845275876 320.469726061821,62.379239845275876 L322.749726061821,62.379239845275876 C322.849726061821,62.379239845275876 322.929726061821,62.459239845275874 322.929726061821,62.55923984527588 L322.929726061821,75.39923984527587 C322.929726061821,75.49923984527588 322.849726061821,75.57923984527588 322.749726061821,75.57923984527588 L320.469726061821,75.57923984527588 zM321.50972606182097,63.57923984527588 L321.50972606182097,74.35923984527588 C321.50972606182097,74.53923984527589 321.729726061821,74.53923984527589 321.729726061821,74.35923984527588 L321.729726061821,63.57923984527588 C321.729726061821,63.43923984527588 321.50972606182097,63.43923984527588 321.50972606182097,63.57923984527588 zM335.814726061821,62.55923984527588 C335.814726061821,62.459239845275874 335.89472606182096,62.379239845275876 335.994726061821,62.379239845275876 L338.294726061821,62.379239845275876 C338.39472606182096,62.379239845275876 338.474726061821,62.459239845275874 338.474726061821,62.55923984527588 L338.474726061821,75.39923984527587 C338.474726061821,75.49923984527588 338.39472606182096,75.57923984527588 338.294726061821,75.57923984527588 L336.074726061821,75.57923984527588 C335.994726061821,75.57923984527588 335.91472606182094,75.53923984527589 335.89472606182096,75.47923984527588 L332.974726061821,68.89923984527587 L332.974726061821,75.39923984527587 C332.974726061821,75.49923984527588 332.89472606182096,75.57923984527588 332.794726061821,75.57923984527588 L330.51472606182097,75.57923984527588 C330.41472606182094,75.57923984527588 330.354726061821,75.49923984527588 330.354726061821,75.39923984527587 L330.354726061821,62.55923984527588 C330.354726061821,62.459239845275874 330.41472606182094,62.379239845275876 330.51472606182097,62.379239845275876 L332.874726061821,62.379239845275876 C332.954726061821,62.379239845275876 332.994726061821,62.43923984527588 333.01472606182097,62.479239845275885 L335.814726061821,68.93923984527588 L335.814726061821,62.55923984527588 zM337.254726061821,74.37923984527588 L337.254726061821,63.57923984527588 C337.254726061821,63.43923984527588 336.994726061821,63.39923984527587 336.994726061821,63.57923984527588 L336.994726061821,73.85923984527588 L331.77472606182096,63.53923984527587 C331.714726061821,63.459239845275874 331.554726061821,63.459239845275874 331.554726061821,63.57923984527588 L331.554726061821,74.35923984527588 C331.554726061821,74.53923984527589 331.794726061821,74.53923984527589 331.794726061821,74.35923984527588 L331.794726061821,64.09923984527587 L336.994726061821,74.39923984527587 C337.074726061821,74.53923984527589 337.254726061821,74.49923984527588 337.254726061821,74.37923984527588 zM352.239726061821,70.95923984527587 L352.239726061821,70.33923984527588 C352.239726061821,70.23923984527588 352.319726061821,70.15923984527588 352.419726061821,70.15923984527588 L354.699726061821,70.15923984527588 C354.799726061821,70.15923984527588 354.879726061821,70.23923984527588 354.879726061821,70.33923984527588 L354.879726061821,71.59923984527587 C354.879726061821,74.53923984527589 353.299726061821,75.77923984527588 350.319726061821,75.77923984527588 C347.53972606182094,75.77923984527588 345.719726061821,74.67923984527587 345.719726061821,71.59923984527587 L345.719726061821,66.33923984527588 C345.719726061821,63.379239845275876 347.339726061821,62.19923984527588 350.319726061821,62.19923984527588 C353.13972606182097,62.19923984527588 354.879726061821,63.27923984527588 354.879726061821,66.33923984527588 L354.879726061821,66.75923984527589 C354.879726061821,66.85923984527588 354.799726061821,66.93923984527588 354.699726061821,66.93923984527588 L352.39972606182096,66.93923984527588 C352.299726061821,66.93923984527588 352.219726061821,66.85923984527588 352.219726061821,66.75923984527589 L352.219726061821,66.43923984527588 C352.219726061821,65.33923984527588 351.39972606182096,64.87923984527588 350.419726061821,64.87923984527588 L350.179726061821,64.87923984527588 C349.51972606182096,64.87923984527588 349.079726061821,65.05923984527588 348.77972606182095,65.45923984527587 C348.499726061821,65.83923984527588 348.39972606182096,66.33923984527588 348.39972606182096,66.99923984527588 L348.39972606182096,70.95923984527587 C348.39972606182096,72.69923984527588 349.379726061821,73.07923984527588 350.179726061821,73.07923984527588 L350.419726061821,73.07923984527588 C351.679726061821,73.07923984527588 352.199726061821,72.23923984527588 352.239726061821,70.95923984527587 zM350.27972606182095,63.43923984527588 C348.13972606182097,63.43923984527588 346.89972606182096,64.19923984527588 346.89972606182096,66.63923984527588 L346.89972606182096,71.45923984527587 C346.89972606182096,73.67923984527587 348.03972606182094,74.49923984527588 350.27972606182095,74.49923984527588 C352.379726061821,74.49923984527588 353.63972606182097,73.73923984527588 353.63972606182097,71.43923984527588 C353.63972606182097,71.27923984527588 353.39972606182096,71.27923984527588 353.39972606182096,71.43923984527588 C353.39972606182096,73.45923984527587 352.299726061821,74.27923984527588 350.27972606182095,74.27923984527588 C348.319726061821,74.27923984527588 347.119726061821,73.59923984527587 347.119726061821,71.45923984527587 L347.119726061821,66.63923984527588 C347.119726061821,64.55923984527588 348.099726061821,63.65923984527588 350.27972606182095,63.65923984527588 C353.119726061821,63.65923984527588 353.219726061821,65.45923984527587 353.219726061821,65.65923984527588 C353.219726061821,65.83923984527588 353.499726061821,65.85923984527588 353.499726061821,65.65923984527588 C353.499726061821,63.99923984527588 351.819726061821,63.43923984527588 350.27972606182095,63.43923984527588 zM363.044726061821,75.75923984527589 C362.104726061821,75.75923984527589 361.304726061821,74.95923984527587 361.304726061821,73.97923984527588 S362.104726061821,72.23923984527588 363.044726061821,72.23923984527588 C364.02472606182096,72.23923984527588 364.844726061821,72.99923984527588 364.844726061821,73.97923984527588 S364.02472606182096,75.75923984527589 363.044726061821,75.75923984527589 zM363.064726061821,74.57923984527588 C363.364726061821,74.57923984527588 363.604726061821,74.35923984527588 363.604726061821,74.05923984527588 S363.364726061821,73.53923984527589 363.064726061821,73.53923984527589 S362.544726061821,73.75923984527589 362.544726061821,74.05923984527588 S362.76472606182097,74.57923984527588 363.064726061821,74.57923984527588 zM363.064726061821,73.77923984527588 C363.224726061821,73.77923984527588 363.344726061821,73.89923984527587 363.344726061821,74.05923984527588 C363.344726061821,74.23923984527588 363.224726061821,74.35923984527588 363.064726061821,74.35923984527588 S362.76472606182097,74.23923984527588 362.76472606182097,74.05923984527588 C362.76472606182097,73.89923984527587 362.90472606182095,73.77923984527588 363.064726061821,73.77923984527588 z" fill="#111111" id="xe_01ke41" oldFill="#111111"></path></g></g></g></g><g id="borderG" clip-path="url(#bound_0)" display="none"><rect id="border" x="235.80000000000004" y="71.30000000000001" width="483.3999999999999" height="483.4" aWidth="5.83" aHeight="5.83" fill="none" stroke-width="1" stroke="#000" pointer-events="none"></rect></g></svg>